<svg xmlns="http://www.w3.org/2000/svg" width="925.278" height="270.788" viewBox="0 0 925.278 270.788">
  <g id="Group_22009" data-name="Group 22009" transform="translate(164.561 -1047.61)">
    <g id="Group_19823" data-name="Group 19823" transform="translate(-164.561 1047.67)">
      <path id="Path_42337" data-name="Path 42337" d="M28.916,1289.952a27.743,27.743,0,0,1-8.16,19.693,27.719,27.719,0,0,1-19.683,8.161H-164.561v-235.32a34.816,34.816,0,0,1,34.814-34.814,34.809,34.809,0,0,1,34.814,34.814v179.624H1.073A27.844,27.844,0,0,1,28.916,1289.952Z" transform="translate(164.561 -1047.671)" fill="#df1e32"/>
    </g>
    <g id="Group_19825" data-name="Group 19825" transform="translate(296.525 1049.134)">
      <path id="Path_42338" data-name="Path 42338" d="M511.6,1264.71a33.646,33.646,0,0,1-7.747,46.946l-.777.542a35.292,35.292,0,0,1-48.49-8.357l-43.4-60.632-43.436,60.681a35.292,35.292,0,0,1-48.5,8.347,33.651,33.651,0,0,1-9.065-46.709c.177-.256.354-.512.541-.777l57.938-80.954-57.948-80.963a33.646,33.646,0,0,1,7.747-46.946c.256-.177.521-.364.777-.541a35.281,35.281,0,0,1,48.49,8.356l43.446,60.7,43.417-60.662a35.29,35.29,0,0,1,48.49-8.347,33.646,33.646,0,0,1,9.075,46.71c-.177.256-.364.521-.541.777L453.7,1183.806Z" transform="translate(-304.421 -1049.161)" fill="#df1e32"/>
    </g>
    <g id="Group_19824" data-name="Group 19824" transform="translate(35.195 1047.61)">
      <path id="Path_42339" data-name="Path 42339" d="M143.747,1219.321a.383.383,0,0,0-.088.049.059.059,0,0,0-.039.01C143.658,1219.36,143.7,1219.34,143.747,1219.321Z" transform="translate(-40.383 -1050.501)" fill="#df1e32"/>
      <path id="Path_42340" data-name="Path 42340" d="M169.443,1215.9c-.1-.02-.187-.029-.285-.04a.146.146,0,0,0-.059-.019,2.43,2.43,0,0,0,.256.039C169.384,1215.89,169.414,1215.89,169.443,1215.9Z" transform="translate(-40.812 -1050.443)" fill="#df1e32"/>
      <path id="Path_42341" data-name="Path 42341" d="M138.526,1222.141q-.678.428-1.357.885.487-.339.973-.648Z" transform="translate(-40.274 -1050.549)" fill="#df1e32"/>
      <path id="Path_42342" data-name="Path 42342" d="M142.825,1219.761c-.275.127-.541.256-.806.394.079-.04.157-.079.226-.118C142.432,1219.938,142.629,1219.85,142.825,1219.761Z" transform="translate(-40.356 -1050.509)" fill="#df1e32"/>
      <path id="Path_42343" data-name="Path 42343" d="M145.2,1218.681c-.521.216-1.032.443-1.544.678-.128.069-.266.128-.4.187.108-.059.226-.118.334-.167.01,0,.02-.01.029-.01.039-.02.079-.04.128-.059C144.222,1219.094,144.7,1218.878,145.2,1218.681Z" transform="translate(-40.377 -1050.49)" fill="#df1e32"/>
      <path id="Path_42344" data-name="Path 42344" d="M169.35,1215.879a1.341,1.341,0,0,0-.2-.02c-.118-.02-.226-.049-.344-.059l.226.029c.02,0,.039.01.059.01A2.206,2.206,0,0,0,169.35,1215.879Z" transform="translate(-40.807 -1050.442)" fill="#df1e32"/>
      <path id="Path_42345" data-name="Path 42345" d="M171.353,1216.259a2.35,2.35,0,0,1-.256-.048l-.1-.03C171.117,1216.211,171.235,1216.23,171.353,1216.259Z" transform="translate(-40.844 -1050.448)" fill="#df1e32"/>
      <path id="Path_42346" data-name="Path 42346" d="M182.859,1220.436a2.077,2.077,0,0,0-.295-.147c-.108-.059-.206-.118-.315-.177C182.455,1220.219,182.662,1220.328,182.859,1220.436Z" transform="translate(-41.033 -1050.515)" fill="#df1e32"/>
      <path id="Path_42347" data-name="Path 42347" d="M273.91,1092.492l-79.145,115.542c.01.177.01.364.01.551v20.873a46.143,46.143,0,0,0-8.848-8.5l-.01.009a46.35,46.35,0,0,0-5.771-3.579,2.077,2.077,0,0,1,.295.147c-.2-.108-.4-.216-.61-.324a4.145,4.145,0,0,0-.433-.207,1.726,1.726,0,0,0-.187-.1,5.92,5.92,0,0,0-.57-.265c-.5-.236-1.013-.472-1.534-.688-1.032-.443-2.084-.836-3.156-1.2a1.148,1.148,0,0,0-.108-.04q-.811-.281-1.622-.5c-.492-.157-.993-.285-1.494-.4-.167-.049-.334-.088-.511-.128-.216-.059-.442-.108-.669-.157-.138-.029-.275-.069-.423-.1-.118-.03-.236-.05-.354-.079-.187-.03-.364-.069-.551-.1-.206-.049-.423-.088-.639-.118l-.334-.059c-.029-.01-.059-.01-.088-.02a2.31,2.31,0,0,1-.256-.039c-.02,0-.039-.01-.059-.01-.069-.01-.147-.02-.226-.029a1.383,1.383,0,0,0-.216-.03h-.029a2.867,2.867,0,0,0-.4-.059.961.961,0,0,0-.226-.03,3.727,3.727,0,0,0-.433-.059c-.128-.019-.256-.029-.374-.039-.167-.03-.334-.04-.5-.059a2.146,2.146,0,0,0-.256-.02,1.341,1.341,0,0,0-.2-.02l-.315-.03a2.436,2.436,0,0,0-.275-.019c-.1-.01-.2-.02-.295-.02a1.083,1.083,0,0,0-.187-.01c-.275-.029-.56-.04-.846-.049a1.076,1.076,0,0,0-.177-.01.477.477,0,0,0-.118,0c-.118-.01-.246-.02-.374-.02h-.324a.608.608,0,0,0-.138-.01c-.275-.01-.56-.01-.836-.01-.423,0-.846.01-1.268.02h-.049a.906.906,0,0,0-.157.01h-.157c-.118.01-.246.01-.374.02-.285.01-.57.03-.855.049a.354.354,0,0,0-.1.01,4.217,4.217,0,0,0-.482.029.653.653,0,0,0-.138.01c-.265.02-.531.049-.787.079-.147.01-.285.02-.433.039a.208.208,0,0,0-.079.01c-.108.01-.216.02-.334.039-.226.02-.452.049-.669.079-.167.03-.324.049-.492.069a.01.01,0,0,1-.01.01c-.413.059-.816.128-1.219.2-.551.1-1.091.2-1.642.324-.069.01-.147.03-.236.049-.138.029-.275.059-.423.1s-.3.069-.452.108c-.1.02-.2.049-.3.079-.2.049-.4.1-.6.157-.413.1-.816.216-1.229.344h-.01l-.354.119a.656.656,0,0,0-.2.059c-.59.177-1.17.374-1.75.59a.419.419,0,0,0-.138.059c-.531.187-1.062.394-1.583.61a.454.454,0,0,0-.147.059c-.492.2-.973.413-1.455.629-.049.02-.088.04-.128.059-.01,0-.02.009-.029.009-.108.05-.226.108-.334.168-.138.059-.265.127-.4.2-.2.088-.393.177-.58.275-.069.04-.147.079-.226.118a.64.64,0,0,0-.157.088c-.423.207-.836.433-1.249.669-.079.039-.167.088-.246.138-.226.118-.452.255-.678.394-.108.059-.226.127-.334.2-.187.109-.383.227-.57.345l-.177.118-.383.236q-.487.308-.973.648c-.433.286-.865.59-1.288.9-.138.1-.285.207-.423.315-.413.3-.816.619-1.219.954h-.01a45.928,45.928,0,0,0-7.423,7.521v-18.356L43.672,1092.463a28.928,28.928,0,0,1,6.813-39.7,27.456,27.456,0,0,1,38.314,6.292c.167.226.324.462.482.688l69.52,101.5,69.5-101.462a27.442,27.442,0,0,1,38.1-7.462c.236.157.462.314.688.482A28.908,28.908,0,0,1,273.91,1092.492Z" transform="translate(-38.615 -1047.61)" fill="#df1e32"/>
      <path id="Path_42348" data-name="Path 42348" d="M156.19,1215.7c-.167.03-.334.049-.5.078,0,0,.01,0,.01-.009C155.866,1215.75,156.023,1215.731,156.19,1215.7Z" transform="translate(-40.586 -1050.44)" fill="#df1e32"/>
      <path id="Path_42349" data-name="Path 42349" d="M163.867,1215.341c-.226-.01-.462-.02-.7-.02h.324C163.621,1215.321,163.749,1215.331,163.867,1215.341Z" transform="translate(-40.712 -1050.434)" fill="#df1e32"/>
      <path id="Path_42350" data-name="Path 42350" d="M171.344,1216.258a2.363,2.363,0,0,1-.256-.05c-.216-.048-.433-.088-.649-.127.187.029.364.069.551.1C171.108,1216.208,171.226,1216.229,171.344,1216.258Z" transform="translate(-40.835 -1050.446)" fill="#df1e32"/>
      <path id="Path_42351" data-name="Path 42351" d="M181.609,1219.8a1.807,1.807,0,0,1,.187.1c-.256-.118-.511-.246-.757-.364A6.041,6.041,0,0,1,181.609,1219.8Z" transform="translate(-41.013 -1050.504)" fill="#df1e32"/>
      <path id="Path_42352" data-name="Path 42352" d="M182.851,1220.432a2.08,2.08,0,0,0-.295-.147c-.246-.128-.492-.255-.747-.383a4.243,4.243,0,0,1,.433.207C182.448,1220.216,182.655,1220.324,182.851,1220.432Z" transform="translate(-41.026 -1050.511)" fill="#df1e32"/>
      <path id="Path_42353" data-name="Path 42353" d="M161.561,1224.3c-19.889,0-36.092,16.881-36.092,37.636,0,16.448,24.2,45.953,36.082,58.773,14.364-15.543,36.072-43.122,36.072-58.773C197.624,1241.182,181.441,1224.3,161.561,1224.3Zm-5.476,19.132a14.191,14.191,0,0,1,18.562,7.62c.03.079.059.157.089.226a14.6,14.6,0,0,1-7.718,18.966,14.187,14.187,0,0,1-18.562-7.629c-.029-.069-.059-.147-.088-.216A14.6,14.6,0,0,1,156.085,1243.434Z" transform="translate(-40.077 -1050.585)" fill="#df1e32"/>
    </g>
    <g id="Group_19826" data-name="Group 19826" transform="translate(531.055 1047.717)">
      <path id="Path_42354" data-name="Path 42354" d="M667.284,1157.839l-.01.02a8.5,8.5,0,0,0-3.815-3.608A8.279,8.279,0,0,1,667.284,1157.839Z" transform="translate(-544.995 -1049.512)" fill="#df1e32"/>
      <path id="Path_42355" data-name="Path 42355" d="M770.306,1271.627l-79.341-202.06a36.109,36.109,0,0,0-66.334-.01l-79.342,202.07c-6.892,17.549,2.074,37.232,20.027,43.967s38.078-2.025,44.97-19.575l12.515-31.874a23.95,23.95,0,0,0,4.228.364h60.15a24.273,24.273,0,0,0,5.515-.619l12.614,32.129c6.892,17.55,27.027,26.31,44.98,19.575S777.2,1289.176,770.306,1271.627Zm-87.728-57.24a6.786,6.786,0,0,1-.58.472,4.275,4.275,0,0,1-.619.423,4.351,4.351,0,0,1-.659.374,6.344,6.344,0,0,1-.7.314c-.039.02-.089.03-.138.049a8.124,8.124,0,0,1-3.205.541H638.434a8.427,8.427,0,0,1-2.871-.541,7.388,7.388,0,0,1-1.534-.757,6.7,6.7,0,0,1-.551-.383,4.949,4.949,0,0,1-.56-.462c-.01-.01-.03-.02-.04-.029a8.113,8.113,0,0,1-2.153-8.789.731.731,0,0,1,.049-.138l19-48.539a7.893,7.893,0,0,1,.511-1.042,3.851,3.851,0,0,1,.295-.472,3.723,3.723,0,0,1,.325-.452,4.969,4.969,0,0,1,.354-.433,2.975,2.975,0,0,1,.384-.4,3.457,3.457,0,0,1,.393-.375c.137-.127.285-.235.423-.344.216-.167.442-.314.678-.462s.472-.275.708-.393a3.706,3.706,0,0,1,.5-.227,2.713,2.713,0,0,1,.354-.138c.118-.049.246-.088.364-.127a.3.3,0,0,1,.079-.02c.137-.04.265-.079.4-.108a2.3,2.3,0,0,1,.354-.079,6,6,0,0,1,.718-.118l.374-.03a6.3,6.3,0,0,1,.737-.019,6.474,6.474,0,0,1,.747.019c.187.011.374.03.56.059a2.91,2.91,0,0,1,.4.069,5.584,5.584,0,0,1,.678.157,3.289,3.289,0,0,1,.413.118c.069.02.127.049.2.069a6.247,6.247,0,0,1,.7.285,8.282,8.282,0,0,1,3.824,3.588,6.5,6.5,0,0,1,.413.875l19.014,48.539A8.138,8.138,0,0,1,682.578,1214.387Z" transform="translate(-542.967 -1047.719)" fill="#df1e32"/>
      <path id="Path_42356" data-name="Path 42356" d="M684.959,1217.241a6.848,6.848,0,0,1-.58.472,6.563,6.563,0,0,0,.561-.472Z" transform="translate(-545.347 -1050.573)" fill="#df1e32"/>
    </g>
  </g>
</svg>
