<svg width="14" height="14" viewBox="0 0 14 14" fill="none" xmlns="http://www.w3.org/2000/svg">
<path d="M5.91003 4.83506L3.87498 13.9999H2.49999C1.83694 13.9999 1.20111 13.7365 0.732254 13.2677C0.263399 12.7988 0 12.163 0 11.4999V3.92506L5.91003 4.83506ZM11.2652 10.1351L10.2652 11.4351L9.26516 10.1351H9.26505C8.91582 9.7182 8.81137 9.14857 8.99005 8.63506C9.07543 8.3989 9.22409 8.19097 9.41996 8.03394C9.61583 7.87691 9.8511 7.77691 10.1001 7.745H10.4602C10.709 7.77692 10.9444 7.87692 11.1403 8.03394C11.3361 8.19098 11.4848 8.39889 11.5701 8.63506C11.7406 9.1538 11.6248 9.724 11.2651 10.1351H11.2652ZM10.7652 9.25H10.765C10.7642 9.09464 10.6911 8.94843 10.5673 8.85457C10.4435 8.7606 10.283 8.72957 10.1331 8.77064C9.98325 8.8116 9.86104 8.91997 9.80222 9.06384C9.74352 9.20771 9.7549 9.37064 9.83325 9.50493C9.9116 9.63908 10.0479 9.72926 10.202 9.7489C10.3561 9.76855 10.5107 9.71531 10.6201 9.60504C10.706 9.50694 10.7523 9.38037 10.7501 9.25001L10.7652 9.25ZM14 6.08514V11.5C14 12.1631 13.7366 12.7989 13.2677 13.2677C12.7989 13.7366 12.1631 14 11.5 14H4.90004L6.90003 5L14 6.08514ZM12.47 8.28514C12.3148 7.88526 12.0545 7.5348 11.7165 7.27074C11.3786 7.00668 10.9754 6.83894 10.55 6.78514C10.3521 6.76517 10.1528 6.76517 9.95504 6.78514C9.52859 6.83805 9.12459 7.00545 8.78562 7.26963C8.44668 7.53369 8.18562 7.88457 8.03005 8.28514C7.72748 9.12274 7.88496 10.0577 8.44499 10.7501L10.25 13.065L12.055 10.7501C12.6151 10.0577 12.7725 9.12274 12.47 8.28514ZM11.5 0H2.50005C1.83699 0 1.20117 0.263394 0.732311 0.732257C0.263456 1.20112 5.71112e-05 1.83694 5.71112e-05 2.5V2.91997L14 5.06997V2.5C14 1.83694 13.7366 1.20111 13.2677 0.732257C12.7989 0.2634 12.1631 0 11.5 0Z" fill="currentColor"/>
</svg>
