<svg width="82" height="62" viewBox="0 0 82 62" fill="none" xmlns="http://www.w3.org/2000/svg">
<path d="M67.7105 18.0777L63.6934 22.0948C62.8004 22.9878 61.3725 22.9878 60.5685 22.0948L56.8191 18.3454C56.1939 17.7201 55.3906 17.3633 54.4981 17.3633H27.2699C26.3769 17.3633 25.5736 17.7201 24.949 18.3454L21.1995 22.0948C20.3066 22.9878 18.8786 22.9878 18.0747 22.0948L13.9678 17.9879C13.5213 17.5415 12.9858 17.3627 12.3612 17.3627L2.89845 17.3634C1.64866 17.3634 0.666626 18.3454 0.666626 19.5952V26.4693C0.666626 27.7191 1.64866 28.7012 2.89845 28.7012L78.7803 28.8799C80.0301 28.8799 81.0122 27.8979 81.0122 26.6481V19.5958C81.0122 18.346 80.0301 17.364 78.7803 17.364L69.3176 17.3634C68.6924 17.3634 68.1569 17.6312 67.7104 18.0776L67.7105 18.0777Z" fill="#4E87BB"/>
<path d="M11.3794 62H70.2995C71.3705 62 72.2635 61.2858 72.5313 60.2147L77.9769 33.1651C78.2447 31.8262 77.1736 30.4867 75.7451 30.4867H6.02304C4.59453 30.4867 3.5234 31.7365 3.79122 33.1651L9.23686 60.2147C9.41496 61.2858 10.397 62 11.3791 62H11.3794ZM56.4622 35.0396C57.712 35.0396 58.694 36.0217 58.694 37.2715V50.6624C58.694 51.9122 57.712 52.8942 56.4622 52.8942C55.2124 52.8942 54.2304 51.9122 54.2304 50.6624V37.2715C54.2304 36.0217 55.2124 35.0396 56.4622 35.0396ZM40.8394 35.0396C42.0892 35.0396 43.0713 36.0217 43.0713 37.2715V50.6624C43.0713 51.9122 42.0892 52.8942 40.8394 52.8942C39.5896 52.8942 38.6076 51.9122 38.6076 50.6624V37.2715C38.6076 36.0217 39.5896 35.0396 40.8394 35.0396ZM25.2167 35.0396C26.4665 35.0396 27.4485 36.0217 27.4485 37.2715V50.6624C27.4485 51.9122 26.4665 52.8942 25.2167 52.8942C23.9669 52.8942 22.9849 51.9122 22.9849 50.6624V37.2715C22.9849 36.0217 23.9669 35.0396 25.2167 35.0396Z" fill="#4E87BB"/>
<path d="M21.1993 16.4708L5.39788 0.669982C4.50489 -0.223002 3.07694 -0.223002 2.27301 0.669982C1.38003 1.56297 1.38003 2.99092 2.27301 3.79485L18.0745 19.5963C18.9674 20.4893 20.3954 20.4893 21.1993 19.5963C22.0917 18.7027 22.0917 17.2747 21.1993 16.4708Z" fill="#4E87BB"/>
<path d="M79.4053 0.669738C78.5123 -0.223246 77.0843 -0.223246 76.2804 0.669738L60.4789 16.4706C59.586 17.3635 59.586 18.7915 60.4789 19.5954C61.3719 20.4884 62.7999 20.4884 63.6038 19.5954L79.4053 3.79397C80.2976 2.90161 80.2976 1.56215 79.4053 0.669738Z" fill="#4E87BB"/>
</svg>
