<svg width="11" height="21" viewBox="0 0 11 21" fill="none" xmlns="http://www.w3.org/2000/svg">
<path d="M1.43171 11.1171H10.4404C10.7493 11.1171 11 10.8664 11 10.5572C11 10.2482 10.7493 9.99756 10.4404 9.99756H1.43171C1.12274 9.99756 0.87207 10.2482 0.87207 10.5572C0.87207 10.8664 1.12274 11.1171 1.43171 11.1171Z" fill="currentColor"/>
<path d="M6.35361 13.01C6.24377 12.897 6.09305 12.8333 5.93558 12.8333C5.7781 12.8333 5.62738 12.897 5.51754 13.01L1.91654 17.029C1.81659 17.1394 1.76479 17.2854 1.77338 17.434C1.78171 17.5827 1.84939 17.7219 1.96132 17.82C2.07142 17.919 2.21667 17.97 2.36427 17.9617C2.51212 17.9531 2.6506 17.8862 2.74873 17.7753L5.36083 14.8347V20.4398C5.36083 20.749 5.61149 20.9997 5.92073 20.9997C6.2297 20.9997 6.48037 20.749 6.48037 20.4398V14.8497L9.09247 17.7903C9.29863 18.0212 9.6529 18.0413 9.88352 17.8351C10.1144 17.6289 10.1344 17.2747 9.92855 17.0441L6.35361 13.01Z" fill="currentColor"/>
<path d="M5.51792 8.00456C5.62413 8.12378 5.7764 8.19198 5.93596 8.19198C6.09552 8.19198 6.2478 8.12378 6.354 8.00456L9.95866 3.98556C10.1648 3.75468 10.1448 3.40041 9.91389 3.19451C9.683 2.98835 9.32899 3.0084 9.12284 3.23928L6.51074 6.1799V0.559643C6.51074 0.250668 6.26007 0 5.95084 0C5.64186 0 5.39119 0.250668 5.39119 0.559643V6.16478L2.77909 3.22416C2.68278 3.10416 2.54144 3.02919 2.38812 3.0167C2.2348 3.0042 2.08331 3.05522 1.96878 3.15778C1.85424 3.2606 1.78708 3.40585 1.78292 3.55942C1.77876 3.71326 1.8381 3.86189 1.94691 3.97044L5.51792 8.00456Z" fill="currentColor"/>
</svg>
