<svg width="11" height="14" viewBox="0 0 11 14" fill="none" xmlns="http://www.w3.org/2000/svg">
<path d="M6.38423 2.21867C6.35526 2.55369 6.15964 2.85172 5.8636 3.01143C5.5677 3.17115 5.21125 3.17115 4.91521 3.01143C4.61931 2.85172 4.42368 2.55372 4.39471 2.21867C4.39471 1.664 4.97899 0 5.3857 0C5.79254 0 6.38423 1.664 6.38423 2.21867Z" fill="currentColor"/>
<path d="M8.40293 5.95332H6.75366V4.25242C6.7518 4.12614 6.7003 4.0058 6.61029 3.91728C6.52041 3.82875 6.39919 3.77911 6.27302 3.77911H4.50537C4.37921 3.77911 4.258 3.82875 4.16811 3.91728C4.0781 4.0058 4.02659 4.12614 4.02473 4.25242V5.95345L2.37547 5.95332C1.74651 5.9553 1.14382 6.20602 0.698949 6.65087C0.254232 7.09559 0.0033959 7.69831 0.00152588 8.3274V9.5624H0.112459C0.423099 9.5624 0.644972 9.37756 0.992511 9.08907C1.45308 8.61896 2.07982 8.34806 2.73784 8.33481C3.40259 8.35475 4.03253 8.63654 4.49062 9.11864C4.83816 9.40711 5.06003 9.59197 5.37068 9.59197C5.68131 9.59197 5.9106 9.40713 6.25073 9.11864C6.71069 8.63912 7.33952 8.35782 8.00351 8.33481C8.67827 8.34856 9.31972 8.63072 9.78586 9.11864C10.1334 9.40711 10.3553 9.59197 10.6659 9.59197H10.7768V8.3274C10.7749 7.69831 10.5241 7.09562 10.0794 6.65087C9.63458 6.20603 9.03189 5.95532 8.40293 5.95332Z" fill="currentColor"/>
<path d="M9.30542 9.681C8.98067 9.31553 8.52181 9.09673 8.03339 9.07458C7.53717 9.0908 7.06928 9.31006 6.73921 9.681C6.38438 10.0455 5.90793 10.2666 5.40059 10.3023C4.88132 10.2642 4.3955 10.0318 4.03978 9.65143C3.71601 9.28459 3.25669 9.06558 2.76775 9.04501C2.28142 9.06754 1.82507 9.28631 1.50318 9.65143C1.14017 10.0385 0.64246 10.2715 0.1128 10.3023H0.00186603V12.7428C-0.0164576 13.0699 0.10079 13.3902 0.326109 13.6281C0.551443 13.866 0.864802 14.0005 1.19253 14H9.58639C9.90223 14 10.2051 13.8746 10.4283 13.6513C10.6516 13.428 10.7771 13.1251 10.7771 12.8093V10.3023H10.6661C10.1509 10.272 9.66576 10.0505 9.30532 9.681H9.30542Z" fill="currentColor"/>
</svg>
