<svg width="14" height="15" viewBox="0 0 14 15" fill="none" xmlns="http://www.w3.org/2000/svg">
<path fill-rule="evenodd" clip-rule="evenodd" d="M0.875 13.625C0.875 13.1418 1.26675 12.75 1.75 12.75H12.25C12.7333 12.75 13.125 13.1418 13.125 13.625C13.125 14.1082 12.7333 14.5 12.25 14.5H1.75C1.26675 14.5 0.875 14.1082 0.875 13.625ZM3.75628 6.88128C4.09799 6.53957 4.65201 6.53957 4.99372 6.88128L6.125 8.01256L6.125 1.375C6.125 0.891751 6.51675 0.5 7 0.5C7.48325 0.5 7.875 0.89175 7.875 1.375L7.875 8.01256L9.00628 6.88128C9.34799 6.53957 9.90201 6.53957 10.2437 6.88128C10.5854 7.22299 10.5854 7.77701 10.2437 8.11872L7.61872 10.7437C7.45462 10.9078 7.23206 11 7 11C6.76794 11 6.54538 10.9078 6.38128 10.7437L3.75628 8.11872C3.41457 7.77701 3.41457 7.22299 3.75628 6.88128Z" fill="currentColor"/>
</svg>
