<svg width="14" height="14" viewBox="0 0 14 14" fill="none" xmlns="http://www.w3.org/2000/svg">
<path d="M12.7546 0.804795C12.7259 0.661345 12.615 0.548332 12.4701 0.519472L9.90974 0.0072731C9.71124 -0.0326225 9.52355 0.0956724 9.48363 0.292596C9.44519 0.488914 9.57275 0.679415 9.76834 0.718466L11.6784 1.10019C11.6633 1.11183 11.6458 1.11681 11.6328 1.13136L9.22207 3.54127C8.26159 2.8336 7.07881 2.41064 5.79468 2.41064C2.59452 2.41064 0 5.0051 0 8.20532C0 11.4055 2.59446 14 5.79468 14C8.99453 14 11.5894 11.4055 11.5894 8.20532C11.5894 6.55169 10.8919 5.0629 9.78005 4.00653L12.1451 1.6416C12.1588 1.6279 12.1639 1.61044 12.1763 1.59601L12.5585 3.50682C12.5925 3.67852 12.7441 3.79724 12.9135 3.79724C12.9374 3.79724 12.9598 3.79505 12.9852 3.78923C13.1816 3.75007 13.3082 3.56029 13.2692 3.36336L12.7546 0.804795Z" fill="currentColor"/>
</svg>
