<svg width="32" height="32" viewBox="0 0 32 32" fill="none" xmlns="http://www.w3.org/2000/svg">
<path d="M27 16.0037C26.9992 18.5485 26.116 21.0144 24.5009 22.9811C22.8858 24.9478 20.6388 26.2936 18.1427 26.7893C15.6466 27.285 13.0558 26.8999 10.8118 25.6996C8.56776 24.4993 6.80935 22.5581 5.83614 20.2067C4.86293 17.8552 4.73513 15.2391 5.47453 12.804C6.21392 10.369 7.77476 8.26557 9.8911 6.85227C12.0074 5.43897 14.5483 4.80319 17.0809 5.05325C19.6134 5.30332 21.9809 6.42376 23.78 8.22367C24.8013 9.24548 25.6114 10.4585 26.1639 11.7934C26.7164 13.1283 27.0005 14.5589 27 16.0037V16.0037Z" stroke="black" stroke-width="2" stroke-linecap="round" stroke-linejoin="round"/>
<path d="M16 16.0039V9.00391" stroke="black" stroke-width="2" stroke-linecap="round" stroke-linejoin="round"/>
<path d="M11.76 20.2439L16 16.0039" stroke="black" stroke-width="2" stroke-linecap="round" stroke-linejoin="round"/>
</svg>
