<svg width="57" height="36" viewBox="0 0 57 36" fill="none" xmlns="http://www.w3.org/2000/svg">
<path d="M39.0673 0.798515C38.9265 0.769733 38.7799 0.754585 38.6309 0.754585H37.8139H24.3324C23.1952 0.754585 22.2742 1.60669 22.2742 2.65875C22.2742 3.56614 22.9619 4.32508 23.8821 4.51519H25.8601C25.996 4.51519 26.1286 4.52807 26.2571 4.55079C26.2751 4.55382 26.2923 4.55837 26.3104 4.56215C27.2297 4.75227 27.9183 5.51044 27.9183 6.41859C27.9183 7.23661 27.3583 7.93269 26.5748 8.20157C26.3529 8.27807 26.1122 8.32276 25.8601 8.32276H22.5484H13.6517C12.8682 8.59164 12.3082 9.28772 12.3082 10.1057C12.3082 10.9131 12.8534 11.6024 13.6214 11.8789H19.5602C19.823 11.8789 20.0743 11.9258 20.3052 12.0091H20.5459C20.5345 12.0379 20.5254 12.0675 20.514 12.097C21.1706 12.4144 21.6184 13.0498 21.6184 13.7823C21.6184 14.8169 20.726 15.6569 19.6142 15.6834C19.6142 15.6872 19.6134 15.691 19.6134 15.694C19.5807 15.6932 19.5496 15.6895 19.5168 15.6895H6.75416C5.61781 15.6895 4.69678 16.5423 4.69678 17.5936C4.69678 18.6449 5.61781 19.497 6.75416 19.497H15.4618H19.5168C19.5381 19.497 19.5586 19.4948 19.579 19.4948L19.5799 19.497H21.6847C22.8202 19.497 23.7413 20.3491 23.7413 21.4012C23.7413 22.4525 22.8202 23.3046 21.6847 23.3046H20.5017H19.498C18.3616 23.3046 17.4406 24.1567 17.4406 25.2088C17.4406 26.2601 18.3616 27.1122 19.498 27.1122H22.5484C22.5493 27.1137 22.5501 27.1144 22.5509 27.1159H28.7484C29.884 27.1159 30.8058 27.968 30.8058 29.0194C30.8058 30.0472 29.9249 30.8826 28.8229 30.9197H26.3071H24.4396C24.4143 30.9197 24.3889 30.922 24.3635 30.9228C23.2623 30.9599 22.3814 31.7953 22.3814 32.8231C22.3814 33.8744 23.3025 34.7273 24.4396 34.7273H37.2023C37.3627 34.7273 37.5175 34.7084 37.6681 34.6765C37.7172 34.6765 37.7647 34.6796 37.8139 34.6796C47.9395 34.6796 56.1485 27.0857 56.1485 17.7171C56.1485 8.73934 48.6075 1.39536 39.0673 0.798515Z" fill="#DD5B63"/>
<path d="M16.0465 25.0812C16.0465 24.0299 15.1255 23.177 13.9883 23.177H4.50041C3.36488 23.177 2.44385 24.0299 2.44385 25.0812C2.44385 26.1325 3.36488 26.9854 4.50041 26.9854H13.9883C15.1255 26.9854 16.0465 26.1325 16.0465 25.0812Z" fill="#DD5B63" stroke="#DD5B63" stroke-width="1.06133" stroke-miterlimit="10"/>
<path d="M6.05217 12.0098H8.41084C8.67364 12.0098 8.92416 11.9628 9.15585 11.8795C9.92379 11.6023 10.4682 10.9138 10.4682 10.1064C10.4682 9.05506 9.54719 8.2022 8.41084 8.2022H3.0582C1.92103 8.2022 1 9.05506 1 10.1064C1 11.1577 1.92103 12.0098 3.0582 12.0098H6.05217Z" fill="#DD5B63" stroke="#DD5B63" stroke-width="1.06133" stroke-miterlimit="10"/>
<path d="M18.6899 30.9197H15.2359C14.1003 30.9197 13.1785 31.7718 13.1785 32.8231C13.1785 33.8744 14.1003 34.7273 15.2359 34.7273H18.6899C19.8263 34.7273 20.7473 33.8744 20.7473 32.8231C20.7473 31.7718 19.8263 30.9197 18.6899 30.9197Z" fill="#DD5B63" stroke="#DD5B63" stroke-width="1.06133" stroke-miterlimit="10"/>
<path d="M10.6181 4.51489H19.1719C20.0757 4.31342 20.747 3.56357 20.747 2.66602C20.747 1.61396 19.826 0.761859 18.6897 0.761859H11.1012C9.96482 0.761859 9.04297 1.61396 9.04297 2.66602C9.04297 3.56357 9.71512 4.31342 10.6181 4.51489Z" fill="#DD5B63" stroke="#DD5B63" stroke-width="1.06133" stroke-miterlimit="10"/>
<path d="M46.2891 17.7413C46.2891 21.9223 42.6255 25.311 38.1071 25.311C33.5879 25.311 29.925 21.9223 29.925 17.7413C29.925 13.5604 33.5879 10.1717 38.1071 10.1717C42.6255 10.1717 46.2891 13.5604 46.2891 17.7413Z" fill="#363636"/>
<path d="M46.2891 17.7413C46.2891 21.9223 42.6255 25.311 38.1071 25.311C33.5879 25.311 29.925 21.9223 29.925 17.7413C29.925 13.5604 33.5879 10.1717 38.1071 10.1717C42.6255 10.1717 46.2891 13.5604 46.2891 17.7413Z" fill="#363636" stroke="white" stroke-width="1.33333" stroke-miterlimit="10"/>
</svg>
