<svg width="14" height="13" viewBox="0 0 14 13" fill="none" xmlns="http://www.w3.org/2000/svg">
<path d="M6.46128 6.74196C7.97311 6.74196 9.19892 5.39357 9.19892 3.73872V3.00324C9.19892 1.34839 7.97311 0 6.46128 0C4.94944 0 3.72363 1.34839 3.72363 3.00324V3.73872C3.72363 5.39357 4.94944 6.74196 6.46128 6.74196Z" fill="currentColor"/>
<path d="M12.4882 9.21402V9.19359C12.3656 8.70327 12.0796 8.35595 11.4871 8.00864H11.4666L9.1989 6.82369C9.07631 6.7624 8.91287 6.78283 8.79029 6.88498C8.3204 7.31402 7.52362 7.82477 6.44082 7.82477C5.35802 7.82477 4.56125 7.31402 4.09135 6.88498C3.9892 6.78283 3.82576 6.7624 3.68275 6.82369L1.415 8.00864H1.39457C0.822522 8.35595 0.516069 8.70327 0.393488 9.19359V9.21402L0.00531449 11.6044C-0.0151157 11.7065 0.0257448 11.8087 0.0870353 11.8904C0.148326 11.9721 0.250477 12.013 0.352628 12.013H12.529C12.6312 12.013 12.7333 11.9721 12.7946 11.8904C12.8559 11.8087 12.8968 11.7065 12.8763 11.6044L12.4882 9.21402Z" fill="currentColor"/>
<path d="M13.9387 5.51615C13.9387 5.51615 13.9387 5.49572 13.9591 5.49572C13.9591 5.47529 13.9796 5.47529 13.9796 5.45486C13.9796 5.43443 13.9796 5.43443 14 5.414C14 5.39357 14 5.39357 14 5.37314C14 5.35271 14 5.33228 14 5.31185C14 5.29142 14 5.27099 14 5.25056C14 5.23013 14 5.23013 14 5.2097C14 5.18927 14 5.18927 13.9796 5.16884C13.9796 5.14841 13.9591 5.14841 13.9591 5.12798C13.9591 5.12798 13.9591 5.10755 13.9387 5.10755C13.9183 5.08712 13.9183 5.06669 13.8978 5.04626L12.3656 3.514C12.2226 3.37099 11.9978 3.37099 11.8548 3.514C11.7118 3.65701 11.7118 3.88174 11.8548 4.02475L12.7742 4.94411H10.5064C10.3021 4.94411 10.1591 5.10755 10.1591 5.29142C10.1591 5.49572 10.3226 5.63874 10.5064 5.63874H12.7742L11.8548 6.55809C11.7118 6.70111 11.7118 6.92584 11.8548 7.06885C11.9161 7.13014 12.0183 7.171 12.1 7.171C12.1817 7.171 12.2839 7.13014 12.3451 7.06885L13.8774 5.53659C13.9183 5.55702 13.9183 5.53658 13.9387 5.51615Z" fill="currentColor"/>
</svg>
