<svg width="18" height="18" viewBox="0 0 18 18" fill="none" xmlns="http://www.w3.org/2000/svg">
    <mask id="path-1-inside-1_313_10" fill="white">
        <rect width="7.5005" height="7.5005" rx="2" />
    </mask>
    <rect width="7.5005" height="7.5005" rx="2" stroke="currentColor" stroke-width="7.5005"
        mask="url(#path-1-inside-1_313_10)" />
    <mask id="path-2-inside-2_313_10" fill="white">
        <rect x="10.5003" y="10.4995" width="7.5005" height="7.5005" rx="2" />
    </mask>
    <rect x="10.5003" y="10.4995" width="7.5005" height="7.5005" rx="2" stroke="currentColor" stroke-width="7.5005"
        mask="url(#path-2-inside-2_313_10)" />
    <path
        d="M7.52421 16.4776V15.0243C6.16474 14.8837 3.68958 14.1758 3.63332 11.2506C3.64577 11.2631 4.34086 11.4829 5.03531 11.7001C5.28436 11.778 5.47024 11.4703 5.28572 11.2857L3.00047 9.00049L0.767757 11.2509C0.583445 11.4367 0.772295 11.7449 1.02151 11.6651L2.46137 11.2038C2.46137 12.8679 3.28174 16.0791 7.52421 16.4776Z"
        fill="currentColor" />
    <path
        d="M10.4999 1.4995L10.4999 2.95272C11.8594 3.09336 14.3346 3.80122 14.3908 6.72641C14.3784 6.71396 13.6833 6.49417 12.9888 6.27696C12.7398 6.19907 12.5539 6.50679 12.7384 6.69131L15.0237 8.97656L17.2564 6.72613C17.4407 6.54036 17.2518 6.23213 17.0026 6.31198L15.5628 6.77329C15.5628 5.10912 14.7424 1.89796 10.4999 1.4995Z"
        fill="currentColor" />
</svg>