<svg width="22" height="19" viewBox="0 0 22 19" fill="none" xmlns="http://www.w3.org/2000/svg">
<path d="M12 0V1H19V3H12V17H16V19H6V17H9.99995V3H3V1H9.99995V0H12ZM4 4.34315L6.82842 7.17157C7.55228 7.89543 8 8.8954 8 10C8 12.2091 6.20914 14 4 14C1.79086 14 0 12.2091 0 10C0 8.8954 0.447713 7.89543 1.17157 7.17157L4 4.34315ZM18 4.34315L20.8285 7.17157C21.5523 7.89543 22 8.8954 22 10C22 12.2091 20.2092 14 18 14C15.7909 14 14 12.2091 14 10C14 8.8954 14.4478 7.89543 15.1716 7.17157L18 4.34315ZM18 7.17157L16.5858 8.5858C16.2119 8.9597 16 9.4606 16 10L20 10.001C20 9.4606 19.7882 8.9597 19.4143 8.5858L18 7.17157ZM4 7.17157L2.58578 8.5858C2.21183 8.9597 2 9.4606 2 10L6 10.001C6 9.4606 5.78816 8.9597 5.41421 8.5858L4 7.17157Z" fill="currentColor"/>
</svg>
