<svg width="158" height="22" viewBox="0 0 158 22" fill="none" xmlns="http://www.w3.org/2000/svg">
<path d="M157 8.51525V2C157 1.44772 156.552 1 156 1H2C1.44771 1 1 1.44772 1 2V8.51525C1.54447 8.52692 2.06245 8.73748 2.44312 9.1019C2.82379 9.46632 3.03692 9.95566 3.03692 10.4652C3.03692 10.9748 2.82379 11.4641 2.44312 11.8285C2.06245 12.193 1.54447 12.4035 1 12.4152V20C1 20.5523 1.44772 21 2 21H156C156.552 21 157 20.5523 157 20V12.4121C156.456 12.4005 155.938 12.1899 155.557 11.8255C155.176 11.4611 154.963 10.9717 154.963 10.4622C154.963 9.95259 155.176 9.46326 155.557 9.09884C155.938 8.73442 156.456 8.52385 157 8.51218V8.51525Z" fill="#FED0D3" stroke="#FFB7BC" stroke-miterlimit="10" stroke-linecap="square" stroke-dasharray="2 3"/>
</svg>
