<svg width="16" height="16" viewBox="0 0 16 16" fill="none" xmlns="http://www.w3.org/2000/svg">
<path d="M0.511236 7.5188C0.511236 8.31616 1.15763 8.96255 1.95499 8.96255C2.75235 8.96255 3.39874 8.31616 3.39874 7.5188V1.7438C3.39874 0.946439 2.75235 0.30005 1.95499 0.30005C1.15762 0.30005 0.511236 0.946439 0.511236 1.7438V7.5188Z" fill="currentColor"/>
<path d="M4.36124 7.67922V2.45226C4.36124 1.72313 4.77319 1.05657 5.42535 0.730493L5.47333 0.706504C6.00792 0.439208 6.5974 0.300049 7.1951 0.300049L12.4081 0.300049C13.3257 0.300049 14.1158 0.947734 14.2957 1.84753L15.4507 7.62252C15.689 8.8137 14.7779 9.92505 13.5631 9.92505H10.1362V13.775C10.1362 14.8382 9.27439 15.7 8.21124 15.7C7.67966 15.7 7.24874 15.2691 7.24874 14.7375V14.0959C7.24874 13.2629 6.97855 12.4523 6.47874 11.7859L5.13124 9.98922C4.63142 9.3228 4.36124 8.51224 4.36124 7.67922Z" fill="currentColor"/>
</svg>
