<svg width="15" height="13" viewBox="0 0 15 13" fill="none" xmlns="http://www.w3.org/2000/svg">
<path d="M13.6607 0H1.33929C0.984245 0.000728571 0.643806 0.215839 0.392694 0.598151C0.141698 0.98065 0.000489796 1.4992 0 2.04V10.2C0.000478316 10.7408 0.141701 11.2594 0.392694 11.6418C0.643809 12.0242 0.984245 12.2393 1.33929 12.24H13.6607C14.0158 12.2393 14.3562 12.0242 14.6073 11.6418C14.8583 11.2593 14.9995 10.7408 15 10.2V2.04C14.9995 1.4992 14.8583 0.980646 14.6073 0.598151C14.3562 0.215834 14.0158 0.000746057 13.6607 0ZM14.4643 10.2C14.4643 10.5246 14.3796 10.8361 14.229 11.0655C14.0783 11.295 13.8738 11.424 13.6607 11.424H1.3393C1.12621 11.424 0.92172 11.295 0.771077 11.0655C0.620434 10.836 0.535745 10.5245 0.535745 10.2V2.04C0.535745 1.71542 0.620406 1.40394 0.771077 1.17448C0.921747 0.945021 1.12624 0.816023 1.3393 0.816023H13.6607C13.8738 0.816023 14.0783 0.944979 14.229 1.17448C14.3796 1.40398 14.4643 1.71547 14.4643 2.04V10.2Z" fill="currentColor"/>
<path d="M1.07147 10.2006C1.07147 10.3088 1.09969 10.4126 1.14992 10.4891C1.20014 10.5656 1.2683 10.6086 1.33933 10.6086H13.6608C13.7318 10.6086 13.7999 10.5656 13.8502 10.4891C13.9004 10.4126 13.9286 10.3088 13.9286 10.2006V8.97656H1.07147V10.2006ZM10.1786 9.38456H10.7143C10.8622 9.38456 10.9822 9.56725 10.9822 9.79256C10.9822 10.0179 10.8622 10.2006 10.7143 10.2006H10.1786C10.0307 10.2006 9.91076 10.0179 9.91076 9.79256C9.91076 9.56725 10.0307 9.38456 10.1786 9.38456ZM4.28576 9.38456H4.82147C4.96939 9.38456 5.08933 9.56725 5.08933 9.79256C5.08933 10.0179 4.96939 10.2006 4.82147 10.2006H4.28576C4.13784 10.2006 4.0179 10.0179 4.0179 9.79256C4.0179 9.56725 4.13784 9.38456 4.28576 9.38456Z" fill="currentColor"/>
<path d="M13.6608 1.63184H1.33933C1.19141 1.63184 1.07147 1.81453 1.07147 2.03984V3.26384H13.9286V2.03984C13.9286 1.93164 13.9004 1.82782 13.8502 1.75132C13.7999 1.67482 13.7318 1.63184 13.6608 1.63184ZM4.82147 2.85584H4.28576C4.13784 2.85584 4.0179 2.67315 4.0179 2.44784C4.0179 2.22253 4.13784 2.03984 4.28576 2.03984H4.82147C4.96939 2.03984 5.08933 2.22253 5.08933 2.44784C5.08933 2.67315 4.96939 2.85584 4.82147 2.85584ZM10.7143 2.85584H10.1786C10.0307 2.85584 9.91076 2.67315 9.91076 2.44784C9.91076 2.22253 10.0307 2.03984 10.1786 2.03984H10.7143C10.8622 2.03984 10.9822 2.22253 10.9822 2.44784C10.9822 2.67315 10.8622 2.85584 10.7143 2.85584Z" fill="currentColor"/>
<rect x="1.0788" y="4.08008" width="12.8571" height="4.08012" fill="currentColor"/>
</svg>
