<svg width="9" height="14" viewBox="0 0 9 14" fill="none" xmlns="http://www.w3.org/2000/svg">
<path d="M4.50006 8C4.10217 8 3.72072 8.15803 3.43935 8.43928C3.15809 8.72065 3.00006 9.10211 3.00006 9.49999V12.5C3.00006 13.0359 3.286 13.5311 3.75006 13.799C4.21411 14.0669 4.786 14.0669 5.25005 13.799C5.71411 13.5311 6.00005 13.0359 6.00005 12.5V9.49999C6.00005 9.10211 5.84202 8.72065 5.56077 8.43928C5.2794 8.15803 4.89794 8 4.50006 8Z" fill="currentColor"/>
<path d="M5.97606 2.26293C5.93387 2.00189 5.82272 1.75668 5.65406 1.55299L6.20706 0.999997H8.50002C8.67871 0.999997 8.84377 0.904686 8.93305 0.749998C9.02234 0.59531 9.02234 0.404685 8.93305 0.25C8.84377 0.0953146 8.6787 7.09393e-07 8.50002 7.09393e-07H6.00003C5.86733 -0.00022249 5.73999 0.0522319 5.64601 0.145983L4.76598 1.02601C4.59054 0.990071 4.4095 0.990071 4.23407 1.02601L3.35404 0.145983C3.26007 0.0522347 3.13273 -0.000222147 3.00002 7.09393e-07H0.500027C0.321345 7.09393e-07 0.156285 0.0953118 0.0669998 0.25C-0.0222856 0.404688 -0.0222856 0.595313 0.0669998 0.749998C0.156285 0.904683 0.32135 0.999997 0.500027 0.999997H2.79299L3.34599 1.55299C3.17568 1.75891 3.06407 2.00691 3.02299 2.27096C2.14173 2.57376 1.37691 3.14385 0.835054 3.90187C0.293199 4.66001 0.00122857 5.56815 0 6.49998V11C0 11.2651 0.105357 11.5195 0.292856 11.7071C0.480467 11.8946 0.734826 12 0.999996 12H1.99999V9.49996C1.99999 8.60677 2.47645 7.78146 3.24999 7.33492C4.02353 6.88837 4.97644 6.88837 5.74998 7.33492C6.52352 7.78146 6.99997 8.6068 6.99997 9.49996V12H7.99997C8.26515 12 8.51951 11.8946 8.70711 11.7071C8.89461 11.5195 8.99997 11.2651 8.99997 11V6.49998C9.00577 5.56538 8.71659 4.65278 8.17363 3.89207C7.63066 3.13136 6.86169 2.56128 5.97598 2.26293H5.97606ZM5.00007 2.49999C5.00007 2.63258 4.94739 2.75981 4.85364 2.85356C4.75989 2.94731 4.63266 2.99999 4.50007 2.99999C4.36748 2.99999 4.24025 2.94731 4.1465 2.85356C4.05275 2.75981 4.00007 2.63258 4.00007 2.49999C4.00007 2.3674 4.05275 2.24017 4.1465 2.14642C4.24025 2.05267 4.36748 1.99999 4.50007 1.99999C4.63266 1.99999 4.75989 2.05267 4.85364 2.14642C4.94739 2.24017 5.00007 2.3674 5.00007 2.49999Z" fill="currentColor"/>
</svg>
