<svg width="15" height="18" viewBox="0 0 15 18" fill="none" xmlns="http://www.w3.org/2000/svg">
<path fill-rule="evenodd" clip-rule="evenodd" d="M7.4375 0.833008C5.09029 0.833008 3.1875 2.7358 3.1875 5.08301V6.14551H2.12501C1.58361 6.14551 1.12879 6.55259 1.069 7.09067L0.00650369 16.6532C-0.0268711 16.9535 0.069249 17.2539 0.270807 17.4791C0.472364 17.7043 0.760284 17.833 1.06251 17.833H13.8125C14.1147 17.833 14.4026 17.7043 14.6042 17.4791C14.8058 17.2539 14.9019 16.9535 14.8685 16.6532L13.806 7.09067C13.7462 6.55259 13.2914 6.14551 12.75 6.14551H11.6875V5.08301C11.6875 2.7358 9.78471 0.833008 7.4375 0.833008ZM9.5625 6.14551V5.08301C9.5625 3.9094 8.61111 2.95801 7.4375 2.95801C6.2639 2.95801 5.3125 3.9094 5.3125 5.08301V6.14551H9.5625ZM3.1875 9.33301C3.1875 8.74621 3.6632 8.27051 4.25 8.27051C4.8368 8.27051 5.3125 8.74621 5.3125 9.33301C5.3125 9.91981 4.8368 10.3955 4.25 10.3955C3.6632 10.3955 3.1875 9.91981 3.1875 9.33301ZM10.625 8.27051C10.0382 8.27051 9.5625 8.74621 9.5625 9.33301C9.5625 9.91981 10.0382 10.3955 10.625 10.3955C11.2118 10.3955 11.6875 9.91981 11.6875 9.33301C11.6875 8.74621 11.2118 8.27051 10.625 8.27051Z" fill="currentColor"/>
</svg>
