<svg width="14" height="16" viewBox="0 0 14 16" fill="none" xmlns="http://www.w3.org/2000/svg">
<path fill-rule="evenodd" clip-rule="evenodd" d="M2 0C0.895431 0 0 0.895431 0 2V16L3.5 14L7 16L10.5 14L14 16V2C14 0.895431 13.1046 0 12 0H2ZM4.5 3C3.67157 3 3 3.67157 3 4.5C3 5.32843 3.67157 6 4.5 6C5.32843 6 6 5.32843 6 4.5C6 3.67157 5.32843 3 4.5 3ZM10.7071 3.29289C10.3166 2.90237 9.68342 2.90237 9.29289 3.29289L3.29289 9.29289C2.90237 9.68342 2.90237 10.3166 3.29289 10.7071C3.68342 11.0976 4.31658 11.0976 4.70711 10.7071L10.7071 4.70711C11.0976 4.31658 11.0976 3.68342 10.7071 3.29289ZM9.5 8C8.67157 8 8 8.67157 8 9.5C8 10.3284 8.67157 11 9.5 11C10.3284 11 11 10.3284 11 9.5C11 8.67157 10.3284 8 9.5 8Z" fill="currentColor"/>
</svg>
