<svg width="20" height="18" viewBox="0 0 20 18" fill="none" xmlns="http://www.w3.org/2000/svg">
<path fill-rule="evenodd" clip-rule="evenodd" d="M2.5 2.57143C1.11929 2.57143 0 3.7227 0 5.14286V15.4286C0 16.8487 1.11929 18 2.5 18H17.5C18.8807 18 20 16.8487 20 15.4286V5.14286C20 3.7227 18.8807 2.57143 17.5 2.57143H15.5178C15.1862 2.57143 14.8683 2.43597 14.6339 2.19485L13.2322 0.753154C12.7634 0.270918 12.1275 0 11.4645 0H8.53553C7.87249 0 7.23661 0.270917 6.76777 0.753153L5.36612 2.19485C5.1317 2.43597 4.81375 2.57143 4.48223 2.57143H2.5ZM10 14.1429C12.0711 14.1429 13.75 12.416 13.75 10.2857C13.75 8.15547 12.0711 6.42857 10 6.42857C7.92893 6.42857 6.25 8.15547 6.25 10.2857C6.25 12.416 7.92893 14.1429 10 14.1429Z" fill="currentColor"/>
</svg>
