<svg width="11" height="11" viewBox="0 0 11 11" fill="none" xmlns="http://www.w3.org/2000/svg">
<path d="M0.949951 0.950195H1.96106L2.16328 1.96131M2.97217 6.00575H8.02773L10.05 1.96131H2.16328M2.97217 6.00575L2.16328 1.96131M2.97217 6.00575L1.81299 7.16494C1.49451 7.48342 1.72007 8.02797 2.17047 8.02797H8.02773M8.02773 8.02797C7.46931 8.02797 7.01662 8.48066 7.01662 9.03908C7.01662 9.59751 7.46931 10.0502 8.02773 10.0502C8.58615 10.0502 9.03884 9.59751 9.03884 9.03908C9.03884 8.48066 8.58615 8.02797 8.02773 8.02797ZM3.98328 9.03908C3.98328 9.59751 3.53059 10.0502 2.97217 10.0502C2.41375 10.0502 1.96106 9.59751 1.96106 9.03908C1.96106 8.48066 2.41375 8.02797 2.97217 8.02797C3.53059 8.02797 3.98328 8.48066 3.98328 9.03908Z" stroke="currentColor" stroke-width="0.9" stroke-linecap="round" stroke-linejoin="round"/>
</svg>
