<svg width="19" height="12" viewBox="0 0 19 12" fill="none" xmlns="http://www.w3.org/2000/svg">
<path d="M7.82652 5.10059C7.26594 5.10044 6.7179 5.25948 6.25172 5.55761C5.78554 5.85573 5.42216 6.27954 5.20753 6.77543C4.9929 7.27133 4.93666 7.81703 5.04593 8.34353C5.15521 8.87003 5.42507 9.35368 5.82141 9.7333C6.21775 10.1129 6.72275 10.3715 7.27254 10.4763C7.82234 10.581 8.39224 10.5273 8.91016 10.3219C9.42809 10.1165 9.87077 9.7687 10.1822 9.32238C10.4937 8.87606 10.6599 8.35132 10.6599 7.81452C10.6591 7.09511 10.3604 6.40537 9.82919 5.8966C9.29802 5.38783 8.57781 5.10156 7.82652 5.10059ZM7.82652 9.9401C7.38749 9.9401 6.95832 9.81544 6.59329 9.58188C6.22825 9.34832 5.94374 9.01635 5.77573 8.62795C5.60772 8.23955 5.56376 7.81216 5.64941 7.39984C5.73506 6.98752 5.94647 6.60877 6.25691 6.31151C6.56735 6.01424 6.96287 5.81179 7.39346 5.72978C7.82406 5.64776 8.27037 5.68986 8.67598 5.85074C9.08159 6.01162 9.42827 6.28406 9.67218 6.63361C9.91609 6.98316 10.0463 7.39412 10.0463 7.81452C10.0455 8.37802 9.81133 8.91822 9.39522 9.31667C8.97912 9.71513 8.41499 9.93932 7.82652 9.9401Z" fill="currentColor"/>
<path d="M1.86712 5.10059C1.78544 5.10059 1.70711 5.13166 1.64935 5.18696C1.59159 5.24227 1.55914 5.31728 1.55914 5.3955V10.235C1.55914 10.3132 1.59159 10.3882 1.64935 10.4436C1.70711 10.4989 1.78544 10.5299 1.86712 10.5299C1.9488 10.5299 2.02714 10.4989 2.0849 10.4436C2.14265 10.3882 2.1751 10.3132 2.1751 10.235V5.39476C2.1749 5.31667 2.14236 5.24185 2.08462 5.1867C2.02689 5.13155 1.94867 5.10059 1.86712 5.10059Z" fill="currentColor"/>
<path d="M13.6912 5.10059C13.6095 5.10059 13.5312 5.13166 13.4734 5.18696C13.4157 5.24227 13.3832 5.31728 13.3832 5.3955V10.235C13.3832 10.3132 13.4157 10.3882 13.4734 10.4436C13.5312 10.4989 13.6095 10.5299 13.6912 10.5299C13.7729 10.5299 13.8512 10.4989 13.909 10.4436C13.9667 10.3882 13.9992 10.3132 13.9992 10.235V5.39476C13.999 5.31667 13.9664 5.24185 13.9087 5.1867C13.851 5.13155 13.7728 5.10059 13.6912 5.10059Z" fill="currentColor"/>
<path d="M18.6926 2.30843e-05H3.78945C3.70777 2.30843e-05 3.62944 0.0310953 3.57168 0.0864022C3.51392 0.141709 3.48147 0.216721 3.48147 0.294937V1.73411H2.12021C2.03853 1.73411 1.96019 1.76518 1.90243 1.82049C1.84468 1.8758 1.81223 1.95081 1.81223 2.02902V3.62966H0.30698C0.225298 3.62966 0.146963 3.66073 0.0892055 3.71604C0.0314482 3.77135 -0.000999451 3.84636 -0.000999451 3.92457V11.7066C-0.000999451 11.7848 0.0314482 11.8598 0.0892055 11.9151C0.146963 11.9704 0.225298 12.0015 0.30698 12.0015H15.2101C15.2918 12.0015 15.3701 11.9704 15.4279 11.9151C15.4856 11.8598 15.5181 11.7848 15.5181 11.7066V10.1059H17.0264C17.1081 10.1059 17.1864 10.0749 17.2442 10.0196C17.3019 9.96426 17.3344 9.88925 17.3344 9.81103V8.37186H18.6964C18.7781 8.37186 18.8564 8.34079 18.9142 8.28548C18.9719 8.23017 19.0044 8.15516 19.0044 8.07695V0.293462C19.0042 0.254545 18.9959 0.216051 18.9801 0.180199C18.9643 0.144347 18.9413 0.111846 18.9123 0.0845685C18.8833 0.057291 18.849 0.0357777 18.8112 0.0212674C18.7735 0.006757 18.7332 -0.000463848 18.6926 2.30843e-05ZM14.9029 11.4131H0.613419V4.2158H14.9036L14.9029 11.4131ZM15.5188 9.51833V3.92236C15.5188 3.84415 15.4864 3.76914 15.4286 3.71383C15.3709 3.65852 15.2925 3.62745 15.2109 3.62745H2.42665V2.32099H16.7184V9.5176H15.5173L15.5188 9.51833ZM18.3877 7.78425H17.3305V2.02681C17.3305 1.9486 17.2981 1.87358 17.2403 1.81828C17.1826 1.76297 17.1042 1.7319 17.0225 1.7319H4.09589V0.587637H18.3861V7.78425H18.3877Z" fill="currentColor"/>
</svg>
