<svg width="17" height="17" viewBox="0 0 17 17" fill="none" xmlns="http://www.w3.org/2000/svg">
<path fill-rule="evenodd" clip-rule="evenodd" d="M8.4 16.8C13.0392 16.8 16.8 13.0392 16.8 8.4C16.8 3.76081 13.0392 0 8.4 0C3.76081 0 0 3.76081 0 8.4C0 13.0392 3.76081 16.8 8.4 16.8ZM9.4 4.2C9.4 3.64772 8.95228 3.2 8.4 3.2C7.84771 3.2 7.4 3.64772 7.4 4.2V8.4C7.4 8.66522 7.50536 8.91957 7.69289 9.10711L10.6627 12.077C11.0533 12.4675 11.6864 12.4675 12.077 12.077C12.4675 11.6864 12.4675 11.0533 12.077 10.6627L9.4 7.98579V4.2Z" fill="currentColor"/>
</svg>
