<svg width="17" height="17" viewBox="0 0 17 17" fill="none" xmlns="http://www.w3.org/2000/svg">
<path d="M9.49172 2.99743L9.21056 3.24559C9.21571 3.25142 9.22105 3.2571 9.22655 3.2626L9.49172 2.99743ZM14.0024 9.49147L13.7543 9.21032C13.7484 9.21547 13.7428 9.2208 13.7373 9.22631L14.0024 9.49147ZM14.1195 7.62521L14.4006 7.37706C14.3955 7.37123 14.3902 7.36555 14.3847 7.36005L14.1195 7.62521ZM7.62546 14.1192L7.36029 14.3844C7.3658 14.3899 7.37147 14.3953 7.37731 14.4004L7.62546 14.1192ZM9.37464 14.1192L9.62279 14.4004C9.62863 14.3953 9.6343 14.3899 9.63981 14.3844L9.37464 14.1192ZM2.99768 9.49147L3.26284 9.22631L3.25459 9.21805L3.24583 9.21032L2.99768 9.49147ZM5.19449 4.81925C4.98739 4.81925 4.81949 4.98714 4.81949 5.19425C4.81949 5.40136 4.98739 5.56925 5.19449 5.56925V4.81925ZM5.2011 5.56925C5.40821 5.56925 5.5761 5.40136 5.5761 5.19425C5.5761 4.98714 5.40821 4.81925 5.2011 4.81925V5.56925ZM2.92505 5.19425C2.92505 3.94087 3.94111 2.9248 5.19449 2.9248V2.1748C3.5269 2.1748 2.17505 3.52666 2.17505 5.19425H2.92505ZM2.92505 8.4998V5.19425H2.17505V8.4998H2.92505ZM5.19449 2.9248H8.50005V2.1748H5.19449V2.9248ZM8.50005 2.9248C8.78291 2.9248 9.03645 3.04832 9.21056 3.24559L9.77287 2.74928C9.46242 2.39755 9.00702 2.1748 8.50005 2.1748V2.9248ZM14.075 8.4998C14.075 8.78266 13.9515 9.03621 13.7543 9.21032L14.2506 9.77262C14.6023 9.46218 14.825 9.00677 14.825 8.4998H14.075ZM13.8383 7.87336C13.9859 8.04057 14.075 8.25932 14.075 8.4998H14.825C14.825 8.06963 14.6645 7.67603 14.4006 7.37706L13.8383 7.87336ZM8.50005 14.0748C8.25957 14.0748 8.04081 13.9857 7.87361 13.8381L7.37731 14.4004C7.67627 14.6643 8.06987 14.8248 8.50005 14.8248V14.0748ZM9.12649 13.8381C8.95928 13.9857 8.74053 14.0748 8.50005 14.0748V14.8248C8.93023 14.8248 9.32383 14.6643 9.62279 14.4004L9.12649 13.8381ZM3.24583 9.21032C3.04856 9.03621 2.92505 8.78266 2.92505 8.4998H2.17505C2.17505 9.00677 2.3978 9.46218 2.74953 9.77262L3.24583 9.21032ZM9.22655 3.2626L13.8543 7.89038L14.3847 7.36005L9.75688 2.73227L9.22655 3.2626ZM7.89062 13.8541L3.26284 9.22631L2.73251 9.75664L7.36029 14.3844L7.89062 13.8541ZM13.7373 9.22631L9.10948 13.8541L9.63981 14.3844L14.2676 9.75664L13.7373 9.22631ZM5.19449 5.56925H5.2011V4.81925H5.19449V5.56925Z" fill="#363636"/>
</svg>
