<svg width="17" height="11" viewBox="0 0 17 11" fill="none" xmlns="http://www.w3.org/2000/svg">
<path d="M11.9541 8.57915C11.9541 9.3464 12.3635 10.0554 13.0281 10.4391C13.6926 10.8229 14.5112 10.8229 15.1757 10.4391C15.8402 10.0554 16.2496 9.3464 16.2496 8.57915V8.27246H11.9542L11.9541 8.57915Z" fill="currentColor"/>
<path d="M2.4541 8.57915C2.4541 9.3464 2.86351 10.0554 3.52805 10.4391C4.19257 10.8229 5.01116 10.8229 5.67568 10.4391C6.3402 10.0554 6.74941 9.3464 6.74941 8.57915V8.27246H2.45416L2.4541 8.57915Z" fill="currentColor"/>
<path d="M14.2615 5.95831C14.0485 5.90545 13.8801 5.7428 13.8198 5.53178L12.7183 1.68146H10.727V6.59034C10.727 6.7532 10.6624 6.90921 10.5473 7.02436C10.4323 7.1395 10.2761 7.20413 10.1135 7.20413H6.74999C6.4112 7.20413 6.13642 6.92933 6.13642 6.59034V5.3632H1.22754V8.43132C1.22754 8.59397 1.29217 8.7502 1.4071 8.86513C1.52224 8.98027 1.67825 9.0449 1.84112 9.0449H16.2498V8.50794C16.2507 7.92198 16.0555 7.35268 15.6951 6.89043C15.3349 6.42838 14.8301 6.10021 14.2615 5.95831Z" fill="currentColor"/>
<path d="M10.7262 2.45433H14.4078V0H10.7262C10.2876 0 9.88254 0.233917 9.66339 0.613569C9.44424 0.993232 9.44424 1.46108 9.66339 1.84071C9.88254 2.22037 10.2877 2.45433 10.7262 2.45433Z" fill="currentColor"/>
<path d="M0.613568 4.29523H6.7498C7.0888 4.29523 7.36337 4.63423 7.36337 4.9088V5.52236C7.36337 5.86136 7.08858 6.13593 6.7498 6.13593H0.613568C0.274569 6.13593 0 5.79693 0 5.52236V4.9088C0 4.5698 0.274793 4.29523 0.613568 4.29523Z" fill="currentColor"/>
</svg>
