<svg width="15" height="11" viewBox="0 0 15 11" fill="none" xmlns="http://www.w3.org/2000/svg">
<path fill-rule="evenodd" clip-rule="evenodd" d="M12.2136 9.426C11.9487 9.42527 11.6905 9.34249 11.4746 9.18902C11.2586 9.03556 11.0955 8.81895 11.0076 8.569H11.4686C12.2039 8.56934 12.9113 8.28808 13.4456 7.783C13.4817 7.89897 13.5005 8.01958 13.5016 8.141C13.5011 8.48216 13.3652 8.80915 13.1236 9.05011C12.8821 9.29106 12.5548 9.42626 12.2136 9.426ZM3.64565 9.426C3.38071 9.42527 3.12251 9.34249 2.90655 9.18902C2.69059 9.03556 2.52748 8.81895 2.43965 8.569H4.85065C4.76288 8.81879 4.59992 9.03528 4.38416 9.18874C4.16839 9.34219 3.91041 9.42507 3.64565 9.426ZM1.93065 3.856C1.81722 3.85574 1.70851 3.81056 1.6283 3.73035C1.54809 3.65014 1.50291 3.54143 1.50265 3.428V1.285C1.50291 1.17157 1.54809 1.06286 1.6283 0.98265C1.70851 0.902442 1.81722 0.857265 1.93065 0.857H4.07365C4.18708 0.857265 4.29579 0.902442 4.376 0.98265C4.45621 1.06286 4.50138 1.17157 4.50165 1.285V3.856H1.93065ZM11.7846 2.142V2.57C11.7848 2.62634 11.7738 2.68215 11.7524 2.73425C11.7309 2.78635 11.6994 2.83371 11.6597 2.87364C11.62 2.91357 11.5727 2.94528 11.5207 2.96696C11.4687 2.98864 11.413 2.99987 11.3566 3H10.7266L10.4056 1.714H11.3566C11.4701 1.71426 11.5788 1.75944 11.659 1.83965C11.7392 1.91986 11.7844 2.02857 11.7846 2.142ZM14.3556 5.457L14.1726 5.329C13.7454 5.02808 13.2543 4.83021 12.7378 4.75093C12.2213 4.67164 11.6935 4.71308 11.1956 4.872L10.9456 3.856H11.3616C11.7021 3.85521 12.0284 3.71954 12.2691 3.4787C12.5097 3.23785 12.6451 2.91147 12.6456 2.571V2.142C12.6454 1.97299 12.6118 1.80568 12.5469 1.64964C12.482 1.49359 12.387 1.35186 12.2673 1.23254C12.1476 1.11322 12.0056 1.01864 11.8493 0.954202C11.6931 0.889767 11.5257 0.856738 11.3566 0.857H10.1566C10.0353 0.601216 9.84402 0.384999 9.60494 0.233345C9.36587 0.0816915 9.08876 0.000792522 8.80565 3.90269e-07H7.92865V0.857H8.80565C8.94921 0.857009 9.08864 0.90506 9.20172 0.993498C9.31481 1.08194 9.39504 1.20567 9.42965 1.345L10.4026 5.236C9.84556 5.58149 9.39925 6.07952 9.11665 6.671L9.89065 7.039C10.1003 6.60033 10.4296 6.22974 10.8405 5.96987C11.2515 5.71 11.7274 5.5714 12.2136 5.57C12.6604 5.5695 13.0993 5.68641 13.4866 5.909C13.4293 6.40419 13.1921 6.86108 12.8201 7.19291C12.4481 7.52473 11.9671 7.70839 11.4686 7.709H1.52165C1.56806 7.0294 1.80322 6.37623 2.20065 5.823C2.4657 5.46559 2.81334 5.17767 3.21387 4.98385C3.6144 4.79003 4.05591 4.69607 4.50065 4.71H6.06065C6.12299 4.71001 6.18457 4.72361 6.24112 4.74985C6.29767 4.77608 6.34782 4.81433 6.38808 4.86192C6.42834 4.90951 6.45775 4.96531 6.47426 5.02542C6.49076 5.08553 6.49397 5.14852 6.48365 5.21L6.22165 6.784L7.06665 6.925L7.32965 5.352C7.36094 5.1676 7.3516 4.97859 7.30229 4.79817C7.25297 4.61775 7.16486 4.45027 7.04411 4.30743C6.92336 4.16459 6.77289 4.04983 6.6032 3.97117C6.43351 3.89251 6.24869 3.85184 6.06165 3.852H5.36165V1.285C5.36112 0.94384 5.22515 0.616849 4.98363 0.375893C4.74212 0.134938 4.41481 -0.000265104 4.07365 3.90269e-07H1.93065C1.59001 0.000529337 1.26347 0.136083 1.0226 0.376952C0.781731 0.617822 0.646178 0.94436 0.645649 1.285V3.428C0.646178 3.76864 0.781731 4.09518 1.0226 4.33605C1.26347 4.57692 1.59001 4.71247 1.93065 4.713H2.07865C1.86786 4.89092 1.67798 5.09221 1.51265 5.313C0.925461 6.13674 0.621245 7.12869 0.645649 8.14V8.568H1.54565C1.64316 9.05312 1.90562 9.48952 2.28844 9.80305C2.67126 10.1166 3.15082 10.2879 3.64565 10.2879C4.14047 10.2879 4.62004 10.1166 5.00286 9.80305C5.38568 9.48952 5.64814 9.05312 5.74565 8.568H10.1146C10.2205 9.08836 10.5159 9.55085 10.9435 9.86574C11.3711 10.1806 11.9004 10.3255 12.4287 10.2721C12.9571 10.2188 13.4468 9.97115 13.8028 9.57718C14.1589 9.1832 14.3559 8.67102 14.3556 8.14C14.3541 7.74167 14.2397 7.35194 14.0256 7.016C14.2425 6.60442 14.3557 6.1462 14.3556 5.681V5.457Z" fill="currentColor"/>
</svg>
