<svg width="105" height="62" viewBox="0 0 105 62" fill="none" xmlns="http://www.w3.org/2000/svg">
<path d="M104.333 39.8648C103.514 35.9234 100.151 31.7397 96.0032 29.724C89.7866 26.704 83.8249 27.3897 78.0934 31.278C79.0731 29.3551 80.6756 28.1255 84.9266 25.9658C81.5177 20.633 79.8366 14.7017 78.6378 8.64686C78.2111 8.60062 77.8854 8.56611 77.4807 8.52194C77.5112 8.14855 77.5383 7.82725 77.5706 7.42623C79.2314 8.21515 80.8541 8.49709 82.5646 8.49882C83.5088 8.49778 84.0284 8.10056 84.3448 7.32823C85.2357 5.16374 85.2798 2.94645 84.805 0.68949C84.693 0.158033 84.3722 -0.0234915 83.853 0.00238842C82.7357 0.0565705 81.6066 0.0230937 80.5045 0.171836C79.1048 0.363022 77.6812 0.712267 76.9945 2.0844C76.5045 3.06552 75.6673 3.54245 74.7833 4.02111C73.5023 2.85432 72.6022 2.42604 71.0432 2.40533C68.4123 2.36703 65.7796 2.36772 63.1484 2.38325C62.0648 2.3905 61.2373 3.20667 61.1843 4.23024C61.1278 5.32421 61.8561 6.21183 62.9699 6.3188C63.6637 6.38644 64.3678 6.35918 65.0666 6.3616C66.6779 6.36781 68.2907 6.36608 69.8736 6.36746C70.3437 8.25104 70.6424 8.47638 72.7374 8.62339C73.1766 9.68838 73.1147 9.62488 72.2957 10.3724C71.4483 11.1444 70.6054 11.9785 69.9913 12.9268C68.4788 15.2652 68.0158 17.9222 67.9055 20.6302C67.6787 26.1833 68.8376 31.5924 69.8319 37.0126C69.9557 37.691 69.8444 38.0951 69.1773 38.3523C67.0528 39.1722 64.9567 40.0733 62.802 40.8166C61.1331 41.3923 59.3941 41.7753 57.5452 42.2823C57.6078 41.7639 57.6402 41.4492 57.6861 41.1348C58.3269 36.6809 57.6473 32.4413 55.1594 28.6224C52.0072 23.7869 47.2681 21.6369 41.4783 21.6103C30.9206 21.5634 20.3647 21.5799 9.80877 21.5703C7.45633 21.5678 5.10425 21.561 2.75217 21.5672C1.67001 21.571 0.890139 22.0755 0.516383 22.9769C-0.13547 24.5495 1.02243 26.0997 2.88731 26.1046C8.5424 26.1211 14.1993 26.1197 19.8561 26.1249L20.7566 26.1256C21.0329 27.3569 20.8487 28.2973 19.7847 28.9258C19.6214 29.0221 19.4771 29.1718 19.3675 29.3251C18.8864 30.0042 18.2277 30.1392 17.4095 30.114C16.0723 30.0736 14.7163 30.0577 13.3938 30.2209C12.211 30.3669 11.4941 31.4782 11.6107 32.6177C11.7273 33.7493 12.664 34.5965 13.86 34.6383C14.317 34.6534 14.7757 34.6407 15.3586 34.6414C12.9919 39.1895 12.3426 43.8798 12.6452 48.7971L15.923 48.8002C16.6712 56.731 23.1787 61.4979 29.4942 61.6097C32.6208 61.6646 35.4761 60.8699 37.9978 59.0836C41.5924 56.5371 43.4808 53.0301 43.8848 48.8013C53.3258 48.2036 62.5005 46.8928 70.9575 42.4445C71.3437 44.1748 71.7235 45.8741 72.1065 47.5848C73.2982 47.3166 74.3636 47.0782 75.449 46.8362C75.3238 53.0578 77.742 57.8157 83.475 60.5192C88.5113 62.8928 93.5892 62.4359 97.9004 58.9818C104.231 53.9122 104.81 47.5689 101.282 40.6365C102.318 40.3732 103.33 40.1181 104.333 39.8648ZM83.4234 1.02907C84.4373 1.92979 84.0284 6.26462 82.7858 7.3089C81.9252 5.98716 82.3456 2.07163 83.4234 1.02907ZM31.0475 57.3018C25.5496 57.7908 20.9095 54.1393 20.4056 48.7881C22.3074 48.7899 24.1506 48.7799 25.9917 48.8127C26.1617 48.8161 26.4049 49.0528 26.4835 49.2354C27.1627 50.8011 28.3679 51.6663 30.1087 51.6646C31.8594 51.6632 33.033 50.7528 33.7165 49.203C33.7972 49.0204 34.0276 48.7726 34.1941 48.7695C35.9245 48.7402 37.655 48.7533 39.3805 48.7547C39.8036 52.4235 35.3975 56.9129 31.0475 57.3018ZM98.0345 52.3217C96.3122 55.7716 93.3133 57.4778 89.8993 57.6052C83.32 57.56 78.7019 51.9845 80.0113 46.2762C80.0753 45.9956 80.4383 45.6408 80.7293 45.569C85.7826 44.3215 90.8474 43.1181 95.9057 41.8868C96.4385 41.7588 96.7308 41.9593 97.0192 42.3492C99.3432 45.4866 99.7614 48.8589 98.0345 52.3217Z" fill="#57598E"/>
</svg>
