<svg width="62" height="62" viewBox="0 0 62 62" fill="none" xmlns="http://www.w3.org/2000/svg">
<path fill-rule="evenodd" clip-rule="evenodd" d="M21.1331 7.17726H13.6744C11.9505 7.17726 10.2982 7.86178 9.08098 9.08098C7.8618 10.2982 7.17726 11.9506 7.17726 13.6744V21.1331L1.90372 26.4066C0.684536 27.6238 0 29.2762 0 31C0 32.7238 0.684511 34.3761 1.90372 35.5934L7.17726 40.8669V48.3256C7.17726 50.0495 7.86178 51.7018 9.08098 52.919C10.2982 54.1382 11.9506 54.8227 13.6744 54.8227H21.1331L26.4066 60.0963C27.6238 61.3155 29.2762 62 31 62C32.7238 62 34.3761 61.3155 35.5934 60.0963L40.8669 54.8227H48.3256C50.0495 54.8227 51.7018 54.1382 52.919 52.919C54.1382 51.7018 54.8227 50.0494 54.8227 48.3256V40.8669L60.0963 35.5934C61.3155 34.3762 62 32.7238 62 31C62 29.2762 61.3155 27.6239 60.0963 26.4066L54.8227 21.1331V13.6744C54.8227 11.9505 54.1382 10.2982 52.919 9.08098C51.7018 7.8618 50.0494 7.17726 48.3256 7.17726H40.8669L35.5934 1.90372C34.3762 0.684536 32.7238 0 31 0C29.2762 0 27.6239 0.684511 26.4066 1.90372L21.1331 7.17726ZM44.7825 35.5938C42.2466 33.0596 38.1292 33.0596 35.5933 35.5938C33.0592 38.1297 33.0592 42.2471 35.5933 44.783C38.1292 47.319 42.2466 47.319 44.7825 44.783C47.3185 42.2471 47.3185 38.1297 44.7825 35.5938ZM41.7201 38.6582C42.5646 39.5027 42.5646 40.8736 41.7201 41.7206C40.8732 42.5651 39.5022 42.5651 38.6577 41.7206C37.8112 40.8737 37.8112 39.5027 38.6577 38.6582C39.5022 37.8117 40.8731 37.8117 41.7201 38.6582ZM38.6577 20.2806L20.2801 38.6582C19.4356 39.5027 19.4356 40.8736 20.2801 41.7206C21.1271 42.5651 22.4981 42.5651 23.3426 41.7206L41.7201 23.3431C42.5646 22.4985 42.5646 21.1276 41.7201 20.2806C40.8732 19.4361 39.5022 19.4361 38.6577 20.2806ZM26.4065 17.2182C23.8705 14.6822 19.7532 14.6822 17.2172 17.2182C14.6812 19.7542 14.6812 23.8715 17.2172 26.4075C19.7532 28.9416 23.8705 28.9416 26.4065 26.4075C28.9406 23.8715 28.9406 19.7542 26.4065 17.2182ZM23.3421 20.2806C24.1885 21.1276 24.1885 22.4986 23.3421 23.3431C22.4975 24.1895 21.1266 24.1895 20.2796 23.3431C19.4351 22.4985 19.4351 21.1276 20.2796 20.2806C21.1266 19.4361 22.4976 19.4361 23.3421 20.2806Z" fill="#44AB96"/>
</svg>
