<svg width="15" height="17" viewBox="0 0 15 17" fill="none" xmlns="http://www.w3.org/2000/svg">
<path d="M6.375 1.0625C6.375 0.475697 6.8507 0 7.4375 0C8.0243 0 8.5 0.475697 8.5 1.0625V6.90625C8.5 7.19965 8.73785 7.4375 9.03125 7.4375C9.32465 7.4375 9.5625 7.19965 9.5625 6.90625V2.125C9.5625 1.5382 10.0382 1.0625 10.625 1.0625C11.2118 1.0625 11.6875 1.5382 11.6875 2.125V6.90625C11.6875 7.19965 11.9254 7.4375 12.2188 7.4375C12.5122 7.4375 12.75 7.19965 12.75 6.90625V4.25C12.75 3.6632 13.2257 3.1875 13.8125 3.1875C14.3993 3.1875 14.875 3.6632 14.875 4.25V9.5625C14.875 13.6701 11.5451 17 7.4375 17C3.32988 17 0 13.6701 0 9.5625V7.4375C0 6.8507 0.475698 6.375 1.0625 6.375C1.6493 6.375 2.125 6.8507 2.125 7.4375V10.0938C2.125 10.3872 2.36285 10.625 2.65625 10.625C2.94965 10.625 3.1875 10.3872 3.1875 10.0938V2.125C3.1875 1.5382 3.6632 1.0625 4.25 1.0625C4.8368 1.0625 5.3125 1.5382 5.3125 2.125V6.90625C5.3125 7.19965 5.55035 7.4375 5.84375 7.4375C6.13715 7.4375 6.375 7.19965 6.375 6.90625V1.0625Z" fill="currentColor"/>
</svg>
