<svg width="15" height="16" viewBox="0 0 15 16" fill="none" xmlns="http://www.w3.org/2000/svg">
<path fill-rule="evenodd" clip-rule="evenodd" d="M0.655029 7.57203C0.655029 9.22581 2.05234 10.5665 3.776 10.5665H6.89697V12.7788L5.74409 11.6726C5.39586 11.3385 4.83126 11.3385 4.48303 11.6726C4.13479 12.0067 4.13479 12.5484 4.48303 12.8826L7.15814 15.4492C7.50638 15.7833 8.07097 15.7833 8.41921 15.4492L11.0943 12.8826C11.4426 12.5484 11.4426 12.0067 11.0943 11.6726C10.7461 11.3385 10.1815 11.3385 9.83326 11.6726L8.68038 12.7788V10.5665H10.9096C13.1258 10.5665 14.9223 8.84277 14.9223 6.71647C14.9223 4.59018 13.1258 2.86647 10.9096 2.86647C10.7235 2.86647 10.5402 2.87864 10.3608 2.90219C9.97793 1.40807 8.57234 0.299805 6.89697 0.299805C4.92707 0.299805 3.33015 1.83199 3.33015 3.72203C3.33015 4.02338 3.37074 4.31563 3.44697 4.59403C1.87797 4.75175 0.655029 6.02486 0.655029 7.57203ZM8.68038 10.5665H6.89697V6.28869C6.89697 5.81618 7.2962 5.43314 7.78868 5.43314C8.28115 5.43314 8.68038 5.81618 8.68038 6.28869V10.5665Z" fill="#5E97A9"/>
</svg>
