<svg width="7" height="11" viewBox="0 0 7 11" fill="none" xmlns="http://www.w3.org/2000/svg">
<path fill-rule="evenodd" clip-rule="evenodd" d="M6.74372 6.88128C7.08543 7.22299 7.08543 7.77701 6.74372 8.11872L4.11872 10.7437C3.95462 10.9078 3.73206 11 3.5 11C3.26794 11 3.04538 10.9078 2.88128 10.7437L0.256282 8.11872C-0.0854276 7.77701 -0.0854286 7.22299 0.256281 6.88128C0.597989 6.53957 1.15201 6.53957 1.49372 6.88128L2.625 8.01256L2.625 1.375C2.625 0.891752 3.01675 0.5 3.5 0.5C3.98325 0.5 4.375 0.891752 4.375 1.375L4.375 8.01256L5.50628 6.88128C5.84799 6.53957 6.40201 6.53957 6.74372 6.88128Z" fill="white"/>
</svg>
