<svg width="49" height="62" viewBox="0 0 49 62" fill="none" xmlns="http://www.w3.org/2000/svg">
<path d="M48.8722 17.6682L48.8084 17.4095C48.6804 17.0213 48.4885 16.6976 48.2328 16.439L32.8803 0.712377C32.6884 0.518256 32.4965 0.388692 32.2404 0.259129L31.4086 0.00045144L7.16441 0C3.19845 0 0 3.23592 0 7.24835V54.7517C0 58.7641 3.19845 62 7.16441 62H41.8356C45.8016 62 49 58.7641 49 54.7517V18.3799L48.8722 17.6682ZM33.0079 8.34865L41.004 16.568H34.9909C33.9034 16.568 33.0079 15.662 33.0079 14.5619V8.34865ZM23.5406 22.069L19.8304 25.7581L20.726 30.9357C20.7898 31.1944 20.6622 31.4535 20.4703 31.6476C20.3422 31.7122 20.2146 31.7772 20.0865 31.7772C19.9585 31.7772 19.8947 31.7772 19.7666 31.7127L15.1608 29.2532L10.5551 31.7127C10.2994 31.8422 10.0433 31.8422 9.8514 31.6481C9.65953 31.5185 9.53147 31.2599 9.59572 30.9362L10.4913 25.7586L6.78106 22.0694C6.58919 21.8753 6.52538 21.6162 6.58919 21.3575C6.653 21.0988 6.90913 20.9042 7.16481 20.9042L12.2824 20.1278L14.5853 15.4034C14.841 14.9502 15.6089 14.9502 15.8008 15.4034L18.1037 20.1278L23.2214 20.9042C23.477 20.9688 23.6694 21.0984 23.797 21.3575C23.7965 21.6157 23.7327 21.8748 23.5409 22.0689L23.5406 22.069ZM42.0277 53.8457H32.3685V51.4508H42.0919L42.0914 53.8457H42.0277ZM42.0277 47.568H23.9884V45.1735H42.0916L42.0912 47.568H42.0277ZM42.0277 41.549H23.9884V39.1545H42.0916L42.0912 41.549H42.0277Z" fill="#DD5B63"/>
</svg>
