<svg width="14" height="11" viewBox="0 0 14 11" fill="none" xmlns="http://www.w3.org/2000/svg">
<path fill-rule="evenodd" clip-rule="evenodd" d="M1.75 0.25C0.783502 0.25 0 1.0335 0 2V9C0 9.9665 0.783502 10.75 1.75 10.75H12.25C13.2165 10.75 14 9.9665 14 9V3.75C14 2.7835 13.2165 2 12.25 2H7.875L6.125 0.25H1.75ZM7.875 4.625C7.875 4.14175 7.48325 3.75 7 3.75C6.51675 3.75 6.125 4.14175 6.125 4.625V5.5H5.25C4.76675 5.5 4.375 5.89175 4.375 6.375C4.375 6.85825 4.76675 7.25 5.25 7.25H6.125V8.125C6.125 8.60825 6.51675 9 7 9C7.48325 9 7.875 8.60825 7.875 8.125V7.25H8.75C9.23325 7.25 9.625 6.85825 9.625 6.375C9.625 5.89175 9.23325 5.5 8.75 5.5H7.875V4.625Z" fill="currentColor"/>
</svg>
