<svg width="13" height="18" viewBox="0 0 13 18" fill="none" xmlns="http://www.w3.org/2000/svg">
<path fill-rule="evenodd" clip-rule="evenodd" d="M2.125 0.833008C0.951395 0.833008 0 1.7844 0 2.95801V15.708C0 16.8816 0.951395 17.833 2.125 17.833H10.625C11.7986 17.833 12.75 16.8816 12.75 15.708V2.95801C12.75 1.7844 11.7986 0.833008 10.625 0.833008H2.125ZM3.1875 2.95801C2.6007 2.95801 2.125 3.43371 2.125 4.02051C2.125 4.60731 2.6007 5.08301 3.1875 5.08301H9.5625C10.1493 5.08301 10.625 4.60731 10.625 4.02051C10.625 3.43371 10.1493 2.95801 9.5625 2.95801H3.1875ZM9.5625 10.3955C10.1493 10.3955 10.625 10.8712 10.625 11.458V14.6455C10.625 15.2323 10.1493 15.708 9.5625 15.708C8.9757 15.708 8.5 15.2323 8.5 14.6455V11.458C8.5 10.8712 8.9757 10.3955 9.5625 10.3955ZM6.375 13.583C5.7882 13.583 5.3125 14.0587 5.3125 14.6455C5.3125 15.2323 5.7882 15.708 6.375 15.708H6.38562C6.97243 15.708 7.44812 15.2323 7.44812 14.6455C7.44812 14.0587 6.97243 13.583 6.38562 13.583H6.375ZM2.125 14.6455C2.125 14.0587 2.6007 13.583 3.1875 13.583H3.19812C3.78493 13.583 4.26062 14.0587 4.26062 14.6455C4.26062 15.2323 3.78493 15.708 3.19812 15.708H3.1875C2.6007 15.708 2.125 15.2323 2.125 14.6455ZM3.1875 10.3955C2.6007 10.3955 2.125 10.8712 2.125 11.458C2.125 12.0448 2.6007 12.5205 3.1875 12.5205H3.19812C3.78493 12.5205 4.26062 12.0448 4.26062 11.458C4.26062 10.8712 3.78493 10.3955 3.19812 10.3955H3.1875ZM5.3125 11.458C5.3125 10.8712 5.7882 10.3955 6.375 10.3955H6.38562C6.97243 10.3955 7.44812 10.8712 7.44812 11.458C7.44812 12.0448 6.97243 12.5205 6.38562 12.5205H6.375C5.7882 12.5205 5.3125 12.0448 5.3125 11.458ZM9.5625 7.20801C8.9757 7.20801 8.5 7.68371 8.5 8.27051C8.5 8.85731 8.9757 9.33301 9.5625 9.33301H9.57312C10.1599 9.33301 10.6356 8.85731 10.6356 8.27051C10.6356 7.68371 10.1599 7.20801 9.57312 7.20801H9.5625ZM5.3125 8.27051C5.3125 7.68371 5.7882 7.20801 6.375 7.20801H6.38562C6.97243 7.20801 7.44812 7.68371 7.44812 8.27051C7.44812 8.85731 6.97243 9.33301 6.38562 9.33301H6.375C5.7882 9.33301 5.3125 8.85731 5.3125 8.27051ZM3.1875 7.20801C2.6007 7.20801 2.125 7.68371 2.125 8.27051C2.125 8.85731 2.6007 9.33301 3.1875 9.33301H3.19812C3.78493 9.33301 4.26062 8.85731 4.26062 8.27051C4.26062 7.68371 3.78493 7.20801 3.19812 7.20801H3.1875Z" fill="currentColor"/>
</svg>
