<svg width="41" height="27" viewBox="0 0 41 27" fill="none" xmlns="http://www.w3.org/2000/svg">
<path d="M28.6105 1.03162C28.5084 1.01075 28.4021 0.999758 28.294 0.999758H27.7014H17.9231C17.0983 0.999758 16.4303 1.6178 16.4303 2.38087C16.4303 3.03902 16.9291 3.58949 17.5965 3.72738H19.0312C19.1297 3.72738 19.2259 3.73672 19.3192 3.7532C19.3322 3.75539 19.3447 3.75869 19.3578 3.76144C20.0246 3.89933 20.524 4.44925 20.524 5.10794C20.524 5.70126 20.1178 6.20613 19.5496 6.40116C19.3886 6.45665 19.2141 6.48906 19.0312 6.48906H16.6292H10.1763C9.60798 6.68408 9.20181 7.18896 9.20181 7.78227C9.20181 8.3679 9.59729 8.86783 10.1543 9.06835H14.4618C14.6524 9.06835 14.8347 9.10241 15.0022 9.16284H15.1767C15.1684 9.18371 15.1619 9.20514 15.1536 9.22656C15.6298 9.45675 15.9546 9.91767 15.9546 10.4489C15.9546 11.1994 15.3074 11.8086 14.501 11.8278C14.501 11.8306 14.5004 11.8333 14.5004 11.8355C14.4766 11.835 14.4541 11.8322 14.4303 11.8322H5.1734C4.34919 11.8322 3.68115 12.4508 3.68115 13.2133C3.68115 13.9759 4.34919 14.5939 5.1734 14.5939H11.4892H14.4303C14.4458 14.5939 14.4606 14.5923 14.4755 14.5923L14.476 14.5939H16.0027C16.8264 14.5939 17.4944 15.2119 17.4944 15.975C17.4944 16.7375 16.8264 17.3556 16.0027 17.3556H15.1447H14.4167C13.5925 17.3556 12.9244 17.9736 12.9244 18.7367C12.9244 19.4992 13.5925 20.1173 14.4167 20.1173H16.6292C16.6298 20.1184 16.6304 20.1189 16.631 20.12H21.1261C21.9498 20.12 22.6184 20.7381 22.6184 21.5006C22.6184 22.2461 21.9794 22.852 21.1802 22.8789H19.3554H18.0009C17.9825 22.8789 17.9641 22.8806 17.9457 22.8811C17.147 22.9081 16.5081 23.514 16.5081 24.2595C16.5081 25.022 17.1761 25.6406 18.0009 25.6406H27.2578C27.3742 25.6406 27.4865 25.6269 27.5957 25.6038C27.6313 25.6038 27.6658 25.606 27.7014 25.606C35.0457 25.606 40.9998 20.098 40.9998 13.3029C40.9998 6.79121 35.5302 1.46453 28.6105 1.03162Z" fill="#DD5B63"/>
<path d="M11.9135 18.6443C11.9135 17.8818 11.2455 17.2632 10.4207 17.2632H3.53902C2.7154 17.2632 2.04736 17.8818 2.04736 18.6443C2.04736 19.4068 2.7154 20.0254 3.53902 20.0254H10.4207C11.2455 20.0254 11.9135 19.4068 11.9135 18.6443Z" fill="#DD5B63" stroke="#DD5B63" stroke-width="1.06133" stroke-miterlimit="10"/>
<path d="M4.66441 9.16309H6.37518C6.56579 9.16309 6.7475 9.12903 6.91555 9.06859C7.47254 8.86753 7.86743 8.36815 7.86743 7.78252C7.86743 7.02 7.19939 6.40141 6.37518 6.40141H2.49284C1.66804 6.40141 1 7.02 1 7.78252C1 8.54505 1.66804 9.16309 2.49284 9.16309H4.66441Z" fill="#DD5B63" stroke="#DD5B63" stroke-width="1.06133" stroke-miterlimit="10"/>
<path d="M13.831 22.8789H11.3257C10.5021 22.8789 9.8335 23.497 9.8335 24.2595C9.8335 25.022 10.5021 25.6406 11.3257 25.6406H13.831C14.6552 25.6406 15.3233 25.022 15.3233 24.2595C15.3233 23.497 14.6552 22.8789 13.831 22.8789Z" fill="#DD5B63" stroke="#DD5B63" stroke-width="1.06133" stroke-miterlimit="10"/>
<path d="M7.97599 3.72754H14.1801C14.8357 3.58141 15.3226 3.03753 15.3226 2.38653C15.3226 1.62345 14.6546 1.00541 13.8304 1.00541H8.32634C7.50213 1.00541 6.8335 1.62345 6.8335 2.38653C6.8335 3.03753 7.32102 3.58141 7.97599 3.72754Z" fill="#DD5B63" stroke="#DD5B63" stroke-width="1.06133" stroke-miterlimit="10"/>
<path d="M33.8491 13.3211C33.8491 16.3536 31.1918 18.8115 27.9145 18.8115C24.6367 18.8115 21.98 16.3536 21.98 13.3211C21.98 10.2886 24.6367 7.83072 27.9145 7.83072C31.1918 7.83072 33.8491 10.2886 33.8491 13.3211Z" fill="#363636"/>
<path d="M33.8491 13.3211C33.8491 16.3536 31.1918 18.8115 27.9145 18.8115C24.6367 18.8115 21.98 16.3536 21.98 13.3211C21.98 10.2886 24.6367 7.83072 27.9145 7.83072C31.1918 7.83072 33.8491 10.2886 33.8491 13.3211Z" fill="#363636" stroke="white" stroke-width="1.33333" stroke-miterlimit="10"/>
</svg>
