<svg width="62" height="62" viewBox="0 0 62 62" fill="none" xmlns="http://www.w3.org/2000/svg">
<path fill-rule="evenodd" clip-rule="evenodd" d="M11.625 11.625C11.625 5.20469 16.8297 0 23.25 0C26.2274 0 28.9433 1.11931 31 2.9601C33.0567 1.11931 35.7726 0 38.75 0C45.1703 0 50.375 5.20469 50.375 11.625C50.375 12.9837 50.1419 14.288 49.7135 15.5H54.25C58.5302 15.5 62 18.9698 62 23.25C62 27.5302 58.5302 31 54.25 31H34.875V27.125C34.875 24.9849 33.1401 23.25 31 23.25C28.8599 23.25 27.125 24.9849 27.125 27.125V31H7.75C3.46979 31 0 27.5302 0 23.25C0 18.9698 3.46979 15.5 7.75 15.5H12.2865C11.8581 14.288 11.625 12.9837 11.625 11.625ZM27.125 15.5V11.625C27.125 9.4849 25.3901 7.75 23.25 7.75C21.1099 7.75 19.375 9.4849 19.375 11.625C19.375 13.7651 21.1099 15.5 23.25 15.5H27.125ZM38.75 15.5C40.8901 15.5 42.625 13.7651 42.625 11.625C42.625 9.4849 40.8901 7.75 38.75 7.75C36.6099 7.75 34.875 9.4849 34.875 11.625V15.5H38.75Z" fill="#15BFCA"/>
<path d="M27.125 34.875H3.875V54.25C3.875 58.5302 7.34479 62 11.625 62H27.125V34.875Z" fill="#15BFCA"/>
<path d="M34.875 62H50.375C54.6552 62 58.125 58.5302 58.125 54.25V34.875H34.875V62Z" fill="#15BFCA"/>
</svg>
