<svg width="78" height="49" viewBox="0 0 78 49" fill="none" xmlns="http://www.w3.org/2000/svg">
<path d="M53.6341 1.0607C53.4394 1.02091 53.2368 0.999962 53.0307 0.999962H51.901H33.2607C31.6884 0.999962 30.415 2.17813 30.415 3.63277C30.415 4.88739 31.3658 5.93674 32.6382 6.1996H35.373C35.5609 6.1996 35.7443 6.2174 35.922 6.24882C35.9469 6.25301 35.9707 6.2593 35.9956 6.26453C37.2668 6.5274 38.2188 7.5757 38.2188 8.83136C38.2188 9.9624 37.4445 10.9248 36.3612 11.2966C36.0545 11.4024 35.7217 11.4642 35.373 11.4642H30.7942H18.493C17.4097 11.8359 16.6354 12.7984 16.6354 13.9294C16.6354 15.0458 17.3893 15.9988 18.4511 16.3811H26.6624C27.0258 16.3811 27.3733 16.446 27.6925 16.5612H28.0254C28.0095 16.601 27.997 16.6418 27.9812 16.6827C28.889 17.1215 29.5082 18.0001 29.5082 19.0128C29.5082 20.4434 28.2744 21.6048 26.7372 21.6414C26.7372 21.6467 26.736 21.6519 26.736 21.6561C26.6907 21.655 26.6477 21.6498 26.6025 21.6498H8.95605C7.38486 21.6498 6.11139 22.829 6.11139 24.2826C6.11139 25.7362 7.38486 26.9144 8.95605 26.9144H20.9958H26.6025C26.6319 26.9144 26.6602 26.9112 26.6885 26.9112L26.6896 26.9144H29.5999C31.17 26.9144 32.4435 28.0925 32.4435 29.5472C32.4435 31.0008 31.17 32.179 29.5999 32.179H27.9642H26.5764C25.0052 32.179 23.7318 33.3571 23.7318 34.8118C23.7318 36.2654 25.0052 37.4435 26.5764 37.4435H30.7942C30.7953 37.4456 30.7964 37.4467 30.7976 37.4488H39.3666C40.9367 37.4488 42.2113 38.6269 42.2113 40.0805C42.2113 41.5016 40.9933 42.6568 39.4696 42.7081H35.9911H33.409C33.3739 42.7081 33.3389 42.7112 33.3038 42.7123C31.7813 42.7636 30.5632 43.9187 30.5632 45.3398C30.5632 46.7934 31.8367 47.9727 33.409 47.9727H51.0554C51.2773 47.9727 51.4913 47.9465 51.6995 47.9025C51.7675 47.9025 51.8331 47.9067 51.901 47.9067C65.9013 47.9067 77.2517 37.4069 77.2517 24.4533C77.2517 12.0402 66.825 1.88594 53.6341 1.0607Z" fill="#DD5B63"/>
<path d="M21.8043 34.6354C21.8043 33.1818 20.5309 32.0026 18.9585 32.0026H5.84005C4.27 32.0026 2.99652 33.1818 2.99652 34.6354C2.99652 36.089 4.27 37.2682 5.84005 37.2682H18.9585C20.5309 37.2682 21.8043 36.089 21.8043 34.6354Z" fill="#DD5B63" stroke="#DD5B63" stroke-width="1.06133" stroke-miterlimit="10"/>
<path d="M7.98544 16.5619H11.2467C11.61 16.5619 11.9564 16.497 12.2768 16.3818C13.3386 15.9985 14.0913 15.0465 14.0913 13.9302C14.0913 12.4766 12.8178 11.2973 11.2467 11.2973H3.84579C2.27348 11.2973 1 12.4766 1 13.9302C1 15.3838 2.27348 16.5619 3.84579 16.5619H7.98544Z" fill="#DD5B63" stroke="#DD5B63" stroke-width="1.06133" stroke-miterlimit="10"/>
<path d="M25.4592 42.7081H20.6833C19.1133 42.7081 17.8387 43.8863 17.8387 45.3398C17.8387 46.7934 19.1133 47.9727 20.6833 47.9727H25.4592C27.0303 47.9727 28.3038 46.7934 28.3038 45.3398C28.3038 43.8863 27.0303 42.7081 25.4592 42.7081Z" fill="#DD5B63" stroke="#DD5B63" stroke-width="1.06133" stroke-miterlimit="10"/>
<path d="M14.2985 6.19913H26.1254C27.3751 5.92056 28.3033 4.88377 28.3033 3.64277C28.3033 2.18813 27.0298 1.00996 25.4586 1.00996H14.9663C13.3952 1.00996 12.1205 2.18813 12.1205 3.64277C12.1205 4.88377 13.0499 5.92056 14.2985 6.19913Z" fill="#DD5B63" stroke="#DD5B63" stroke-width="1.06133" stroke-miterlimit="10"/>
<path d="M63.6194 24.4866C63.6194 30.2675 58.5538 34.9529 52.3065 34.9529C46.0579 34.9529 40.9935 30.2675 40.9935 24.4866C40.9935 18.7057 46.0579 14.0203 52.3065 14.0203C58.5538 14.0203 63.6194 18.7057 63.6194 24.4866Z" fill="#363636"/>
<path d="M63.6194 24.4866C63.6194 30.2675 58.5538 34.9529 52.3065 34.9529C46.0579 34.9529 40.9935 30.2675 40.9935 24.4866C40.9935 18.7057 46.0579 14.0203 52.3065 14.0203C58.5538 14.0203 63.6194 18.7057 63.6194 24.4866Z" fill="#363636" stroke="white" stroke-width="1.33333" stroke-miterlimit="10"/>
</svg>
