<svg width="157" height="69" viewBox="0 0 157 69" fill="none" xmlns="http://www.w3.org/2000/svg">
<path d="M0 50.9179V3.15066C0 1.40742 1.46736 3.05176e-05 3.28257 3.05176e-05H4.35011C6.16532 3.05176e-05 7.63268 1.40742 7.63268 3.15066V50.9179C7.63268 52.6571 6.16532 54.0685 4.35011 54.0685H3.28257C1.46736 54.0685 0 52.6571 0 50.9179Z" fill="white"/>
<path d="M0 50.7804V50.3646C0 48.5494 1.46736 47.0781 3.28257 47.0781H26.9243C28.7395 47.0781 30.2148 48.5494 30.2148 50.3646V50.7804C30.2148 52.5957 28.7395 54.067 26.9243 54.067H3.28257C1.46736 54.067 0 52.5957 0 50.7804Z" fill="white"/>
<path d="M46.0619 63.5596L52.3072 50.6652C53.4707 48.2703 56.8452 48.1743 58.1407 50.5053L58.4045 50.9811C58.9123 51.9007 58.9523 53.0002 58.5125 53.9558L52.783 66.3704C52.2472 67.5339 51.0797 68.2815 49.8003 68.2815H49.0206C46.5977 68.2815 45.0064 65.7426 46.0619 63.5596Z" fill="white"/>
<path d="M52.9923 52.4045L39.0864 20.0706C38.1588 17.8996 39.7461 15.4886 42.1051 15.4886H43.0326C44.3681 15.4886 45.5715 16.2963 46.0753 17.5277L57.6663 45.9434H55.0674L67.2901 17.4758C67.8099 16.2683 68.9973 15.4886 70.3088 15.4886H71.1244C73.5234 15.4886 75.1107 17.9755 74.1031 20.1546L59.1176 52.4885C58.5779 53.648 57.4144 54.3877 56.1389 54.3877H56.011C54.6996 54.3877 53.5121 53.608 52.9923 52.4045Z" fill="white"/>
<path d="M81.2339 48.9573L90.6778 35.7791C91.9773 33.9678 94.5841 33.9399 95.9155 35.7231C96.8031 36.9106 96.8311 38.5578 95.9875 39.7813L86.9354 52.9596C86.3157 53.8592 85.3201 54.3869 84.2606 54.3869H83.8728C81.17 54.3869 79.6266 51.2043 81.2339 48.9573Z" fill="white"/>
<path d="M106.15 54.3884C105.15 54.3884 104.211 53.8726 103.627 52.997L93.2154 37.3518L91.908 36.1284L81.2047 20.7831C79.6773 18.596 81.1367 15.4894 83.6876 15.4894H84.3633C85.3509 15.4894 86.2825 15.9891 86.8662 16.8448L96.2781 30.6388L97.5775 31.7863L109.34 49.1347C110.824 51.3217 109.36 54.3884 106.83 54.3884H106.15Z" fill="white"/>
<path d="M95.5128 34.4866L95.4968 34.4666C94.5492 33.2831 94.4893 31.5799 95.3489 30.3284L103.629 18.2377C104.245 17.3341 105.245 16.8023 106.308 16.8023H106.64C109.335 16.8023 110.886 19.9729 109.287 22.2239L100.691 34.3307C99.4231 36.1139 96.8762 36.1939 95.5128 34.4866Z" fill="white"/>
<path d="M149.611 50.78V43.907C149.611 43.747 149.623 43.5911 149.647 43.4312L150.923 34.727C150.967 34.4111 150.967 34.0872 150.919 33.7714L149.647 25.1471C149.623 24.9912 149.611 24.8273 149.611 24.6673V18.7699C149.611 16.9547 151.083 15.4873 152.894 15.4873H153.713C155.529 15.4873 157 16.9547 157 18.7699V50.78C157 52.5952 155.529 54.0665 153.713 54.0665H152.894C151.083 54.0665 149.611 52.5952 149.611 50.78ZM137.996 47.9732C141.623 47.9732 144.545 46.7417 146.768 44.2788C148.988 41.8159 150.095 38.6652 150.095 34.8189C150.095 32.2161 149.583 29.9131 148.552 27.9139C147.524 25.9108 146.101 24.3555 144.29 23.244C142.478 22.1325 140.351 21.5767 137.912 21.5767C135.477 21.5767 133.326 22.1444 131.455 23.284C129.588 24.4195 128.125 25.9788 127.073 27.9539C126.018 29.9291 125.486 32.1921 125.486 34.735C125.486 37.3338 126.018 39.6248 127.073 41.596C128.125 43.5751 129.6 45.1304 131.499 46.2659C133.39 47.4054 135.557 47.9732 137.996 47.9732ZM136.777 54.8782C133.202 54.8782 129.996 54.0026 127.153 52.2393C124.31 50.4801 122.059 48.0811 120.408 45.0465C118.761 42.0198 117.933 38.6093 117.933 34.8189C117.933 31.0286 118.761 27.6141 120.408 24.5794C122.059 21.5487 124.31 19.1418 127.153 17.3545C129.996 15.5673 133.202 14.6757 136.777 14.6757C139.7 14.6757 142.314 15.2834 144.613 16.5029C146.912 17.7184 148.772 19.3976 150.179 21.5367C151.582 23.6798 152.37 26.1547 152.53 28.9695V40.5804C152.37 43.3472 151.598 45.8101 150.219 47.9732C148.84 50.1403 146.984 51.8355 144.657 53.051C142.326 54.2705 139.7 54.8782 136.777 54.8782Z" fill="white"/>
</svg>
