<svg width="86" height="35" viewBox="0 0 86 35" fill="none" xmlns="http://www.w3.org/2000/svg">
<path d="M0 25.9956V2.50615C0 1.64891 0.803777 0.956833 1.7981 0.956833H2.38286C3.37718 0.956833 4.18096 1.64891 4.18096 2.50615V25.9956C4.18096 26.8509 3.37718 27.5449 2.38286 27.5449H1.7981C0.803777 27.5449 0 26.8509 0 25.9956Z" fill="#363636"/>
<path d="M0 25.928V25.7235C0 24.8309 0.803777 24.1074 1.7981 24.1074H14.7483C15.7426 24.1074 16.5508 24.8309 16.5508 25.7235V25.928C16.5508 26.8207 15.7426 27.5442 14.7483 27.5442H1.7981C0.803777 27.5442 0 26.8207 0 25.928Z" fill="#363636"/>
<path d="M25.2313 32.2122L28.6523 25.8714C29.2896 24.6937 31.1381 24.6465 31.8477 25.7927L31.9922 26.0267C32.2704 26.4789 32.2923 27.0196 32.0514 27.4895L28.9129 33.5944C28.6194 34.1665 27.9799 34.5342 27.2791 34.5342H26.852C25.5248 34.5342 24.6531 33.2857 25.2313 32.2122Z" fill="#363636"/>
<path d="M29.0277 26.7267L21.4104 10.8265C20.9023 9.75892 21.7718 8.57334 23.0639 8.57334H23.572C24.3036 8.57334 24.9628 8.9705 25.2387 9.57607L31.5879 23.5494H30.1643L36.8596 9.55051C37.1443 8.95674 37.7947 8.57334 38.5131 8.57334H38.9599C40.274 8.57334 41.1434 9.79628 40.5915 10.8678L32.3829 26.768C32.0873 27.3382 31.4499 27.7019 30.7513 27.7019H30.6812C29.9628 27.7019 29.3124 27.3185 29.0277 26.7267Z" fill="#363636"/>
<path d="M44.4975 25.0316L49.6706 18.5513C50.3824 17.6606 51.8103 17.6468 52.5396 18.5237C53.0258 19.1077 53.0412 19.9177 52.5791 20.5194L47.6206 26.9997C47.2811 27.4421 46.7358 27.7017 46.1554 27.7017H45.943C44.4624 27.7017 43.6171 26.1366 44.4975 25.0316Z" fill="#363636"/>
<path d="M58.1458 27.7024C57.5983 27.7024 57.0836 27.4488 56.7639 27.0182L51.0608 19.3247L50.3446 18.723L44.4816 11.177C43.645 10.1015 44.4444 8.57383 45.8417 8.57383H46.2118C46.7528 8.57383 47.2631 8.8196 47.5829 9.24035L52.7384 16.0235L53.4502 16.5878L59.8936 25.1189C60.7061 26.1944 59.9045 27.7024 58.5182 27.7024H58.1458Z" fill="#363636"/>
<path d="M52.3192 17.9157L52.3104 17.9058C51.7914 17.3239 51.7585 16.4863 52.2294 15.8709L56.7652 9.92528C57.1024 9.48094 57.65 9.21944 58.2325 9.21944H58.4143C59.8905 9.21944 60.7402 10.7786 59.8642 11.8855L55.1554 17.839C54.4611 18.7159 53.066 18.7552 52.3192 17.9157Z" fill="#363636"/>
<path d="M81.9527 25.9278V22.548C81.9527 22.4694 81.9593 22.3927 81.9724 22.3141L82.6711 18.0338C82.6952 17.8785 82.6952 17.7192 82.6689 17.5639L81.9724 13.3229C81.9593 13.2462 81.9527 13.1656 81.9527 13.087V10.1869C81.9527 9.29429 82.7587 8.57272 83.7508 8.57272H84.1998C85.1941 8.57272 86.0001 9.29429 86.0001 10.1869V25.9278C86.0001 26.8205 85.1941 27.544 84.1998 27.544H83.7508C82.7587 27.544 81.9527 26.8205 81.9527 25.9278ZM75.5904 24.5476C77.5769 24.5476 79.1778 23.942 80.3955 22.7309C81.6111 21.5197 82.2177 19.9704 82.2177 18.079C82.2177 16.799 81.9374 15.6665 81.3723 14.6835C80.8095 13.6984 80.0298 12.9336 79.0377 12.387C78.0455 11.8404 76.8804 11.5672 75.5444 11.5672C74.2106 11.5672 73.0323 11.8463 72.0074 12.4067C70.9846 12.9651 70.183 13.7319 69.607 14.7031C69.0288 15.6744 68.7375 16.7872 68.7375 18.0377C68.7375 19.3157 69.0288 20.4423 69.607 21.4116C70.183 22.3848 70.9911 23.1497 72.0314 23.7081C73.0674 24.2684 74.2544 24.5476 75.5904 24.5476ZM74.9224 27.9431C72.9644 27.9431 71.208 27.5125 69.6508 26.6455C68.0936 25.7804 66.8606 24.6007 65.956 23.1084C65.0537 21.62 64.6003 19.9429 64.6003 18.079C64.6003 16.2151 65.0537 14.536 65.956 13.0437C66.8606 11.5534 68.0936 10.3698 69.6508 9.49091C71.208 8.61204 72.9644 8.1736 74.9224 8.1736C76.5234 8.1736 77.9557 8.47245 79.2151 9.07212C80.4744 9.66983 81.4928 10.4956 82.2637 11.5475C83.0325 12.6013 83.4639 13.8184 83.5515 15.2025V20.9122C83.4639 22.2728 83.0412 23.4839 82.2856 24.5476C81.53 25.6132 80.5138 26.4469 79.2392 27.0446C77.9623 27.6443 76.5234 27.9431 74.9224 27.9431Z" fill="#363636"/>
</svg>
