<svg width="14" height="13" viewBox="0 0 14 13" fill="none" xmlns="http://www.w3.org/2000/svg">
<path d="M13.3333 6.25459V4.70008C13.3328 4.28795 13.1571 3.89282 12.8446 3.6014C12.5322 3.30998 12.1086 3.14605 11.6667 3.14558H11V1.59122C11 1.45617 10.9686 1.32273 10.9079 1.20012C10.8472 1.07751 10.7586 0.968662 10.6484 0.881094C10.5382 0.793527 10.4089 0.72933 10.2694 0.692942C10.13 0.656554 9.98376 0.648843 9.84082 0.670341L1.54151 1.91889C1.11078 1.98225 0.718579 2.1873 0.435846 2.49693C0.153113 2.80657 -0.0014857 3.20035 1.07628e-05 3.60706V10.9181C0.000564802 11.3303 0.176336 11.7253 0.488775 12.0168C0.801213 12.3082 1.22481 12.4721 1.66667 12.4726H11.6667C12.1085 12.4721 12.5321 12.3082 12.8445 12.0168C13.157 11.7253 13.3328 11.3303 13.3333 10.9181V9.36363C13.5101 9.36347 13.6795 9.29791 13.8045 9.18134C13.9295 9.06476 13.9998 8.9067 14 8.74183V6.87641C13.9998 6.71155 13.9295 6.55349 13.8045 6.43691C13.6796 6.32034 13.5101 6.25476 13.3333 6.25459ZM12.6667 10.9181C12.6664 11.1654 12.5609 11.4025 12.3735 11.5774C12.186 11.7522 11.9318 11.8506 11.6667 11.8508H1.6667C1.40157 11.8506 1.14738 11.7522 0.959911 11.5774C0.772437 11.4025 0.666987 11.1654 0.666698 10.9181V3.60706C0.66575 3.34825 0.764135 3.09766 0.944059 2.90062C1.12398 2.70358 1.37356 2.57311 1.64767 2.53279L9.94688 1.28424C9.99453 1.27706 10.0433 1.27962 10.0898 1.29174C10.1363 1.30386 10.1794 1.32526 10.2161 1.35445C10.2529 1.38364 10.2824 1.41993 10.3026 1.4608C10.3228 1.50168 10.3333 1.54617 10.3333 1.59119V3.14555H1.66667C1.62262 3.14515 1.57893 3.1529 1.53811 3.16834C1.4973 3.18379 1.46017 3.20663 1.42887 3.23553C1.39758 3.26444 1.37273 3.29885 1.35578 3.33677C1.33882 3.37469 1.33009 3.41536 1.33009 3.45645C1.33009 3.49753 1.33882 3.5382 1.35578 3.57612C1.37273 3.61404 1.39758 3.64845 1.42887 3.67736C1.46017 3.70626 1.4973 3.7291 1.53811 3.74455C1.57893 3.75999 1.62262 3.76774 1.66667 3.76734H11.6667C11.9318 3.76761 12.186 3.86597 12.3734 4.04083C12.5609 4.21568 12.6664 4.45277 12.6667 4.70005V6.25456H9.66666C9.22463 6.25456 8.80071 6.41834 8.48814 6.70987C8.17558 7.0014 7.99999 7.39679 7.99999 7.80908C7.99999 8.22136 8.17558 8.61676 8.48814 8.90829C8.80071 9.19982 9.22463 9.3636 9.66666 9.3636H12.6667L12.6667 10.9181ZM13.3333 8.7418H9.66666C9.40144 8.7418 9.14709 8.64353 8.95955 8.46862C8.77202 8.2937 8.66666 8.05646 8.66666 7.80909C8.66666 7.56172 8.77202 7.32448 8.95955 7.14957C9.14709 6.97465 9.40144 6.87638 9.66666 6.87638H13.3333V8.7418Z" fill="currentColor"/>
</svg>
