<svg width="14" height="14" viewBox="0 0 14 14" fill="none" xmlns="http://www.w3.org/2000/svg">
<path fill-rule="evenodd" clip-rule="evenodd" d="M8.66385 0L5.33615 3.3277V14L8.66385 10.6723V0Z" fill="#5E97A9"/>
<path fill-rule="evenodd" clip-rule="evenodd" d="M1.76478 1.42019C1.52685 1.18226 1.16903 1.11108 0.858158 1.23985C0.547289 1.36861 0.344597 1.67196 0.344597 2.00845V10.3277C0.344597 10.5483 0.432246 10.7599 0.588262 10.916L3.6723 14V3.3277L1.76478 1.42019Z" fill="#5E97A9"/>
<path fill-rule="evenodd" clip-rule="evenodd" d="M13.4117 3.08404L10.3277 0V10.6723L12.2352 12.5798C12.4732 12.8177 12.831 12.8889 13.1418 12.7602C13.4527 12.6314 13.6554 12.328 13.6554 11.9916V3.6723C13.6554 3.45166 13.5678 3.24005 13.4117 3.08404Z" fill="#5E97A9"/>
</svg>
