<svg width="14" height="14" viewBox="0 0 14 14" fill="none" xmlns="http://www.w3.org/2000/svg">
<path fill-rule="evenodd" clip-rule="evenodd" d="M8.51652 0L5.18882 3.3277V14L8.51652 10.6723V0Z" fill="currentColor"/>
<path fill-rule="evenodd" clip-rule="evenodd" d="M1.61745 1.42019C1.37952 1.18226 1.0217 1.11108 0.710827 1.23985C0.399958 1.36861 0.197266 1.67196 0.197266 2.00845V10.3277C0.197266 10.5483 0.284915 10.7599 0.440931 10.916L3.52497 14V3.3277L1.61745 1.42019Z" fill="currentColor"/>
<path fill-rule="evenodd" clip-rule="evenodd" d="M13.2644 3.08404L10.1804 0V10.6723L12.0879 12.5798C12.3258 12.8177 12.6836 12.8889 12.9945 12.7602C13.3054 12.6314 13.5081 12.328 13.5081 11.9916V3.6723C13.5081 3.45166 13.4204 3.24005 13.2644 3.08404Z" fill="currentColor"/>
</svg>
