<svg width="46" height="46" viewBox="0 0 46 46" fill="none" xmlns="http://www.w3.org/2000/svg">
<rect width="46" height="46" rx="10" fill="#FFF5F8"/>
<path d="M25.83 30C25.9891 30.4524 26.0375 30.9363 25.9711 31.4112C25.9046 31.8861 25.7253 32.3382 25.4481 32.7295C25.171 33.1208 24.804 33.44 24.3781 33.6603C23.9521 33.8806 23.4795 33.9955 23 33.9955C22.5205 33.9955 22.0479 33.8806 21.6219 33.6603C21.196 33.44 20.829 33.1208 20.5519 32.7295C20.2747 32.3382 20.0954 31.8861 20.0289 31.4112C19.9625 30.9363 20.0109 30.4524 20.17 30H25.83Z" stroke="#CC274B" stroke-width="1.5" stroke-linecap="round" stroke-linejoin="round"/>
<path d="M30 24.5396V21.2896C30.0263 19.4351 29.336 17.642 28.073 16.2839C26.8099 14.9259 25.0715 14.1076 23.22 13.9996C22.2824 13.9701 21.3484 14.1293 20.4736 14.4679C19.5988 14.8065 18.8009 15.3174 18.1274 15.9704C17.4539 16.6233 16.9185 17.405 16.5531 18.269C16.1876 19.1329 15.9995 20.0615 16 20.9996V24.5396C16.0027 24.8869 15.9111 25.2284 15.735 25.5278C15.5589 25.8271 15.3049 26.0731 15 26.2396C14.6352 26.4416 14.3426 26.7527 14.1633 27.1292C13.984 27.5058 13.9269 27.929 14 28.3396C14.0971 28.8219 14.3627 29.2538 14.7494 29.558C15.136 29.8622 15.6184 30.0187 16.11 29.9996H29.89C30.3816 30.0187 30.864 29.8622 31.2506 29.558C31.6373 29.2538 31.9029 28.8219 32 28.3396C32.0731 27.929 32.016 27.5058 31.8367 27.1292C31.6574 26.7527 31.3648 26.4416 31 26.2396C30.6951 26.0731 30.4411 25.8271 30.265 25.5278C30.0889 25.2284 29.9973 24.8869 30 24.5396V24.5396Z" stroke="#CC274B" stroke-width="1.5" stroke-linecap="round" stroke-linejoin="round"/>
<path d="M25 14C25 14.1 25 14.2 25 14.3C24.4237 14.1168 23.8245 14.0158 23.22 14C22.4766 13.9795 21.7345 14.0739 21.02 14.28C21.008 14.1871 21.0013 14.0936 21 14C21 13.4696 21.2107 12.9609 21.5858 12.5858C21.9609 12.2107 22.4696 12 23 12C23.5304 12 24.0391 12.2107 24.4142 12.5858C24.7893 12.9609 25 13.4696 25 14V14Z" stroke="#CC274B" stroke-width="1.5" stroke-linecap="round" stroke-linejoin="round"/>
</svg>
