<svg width="17" height="17" viewBox="0 0 17 17" fill="none" xmlns="http://www.w3.org/2000/svg">
<path fill-rule="evenodd" clip-rule="evenodd" d="M17 8.5C17 13.1944 13.1944 17 8.5 17C3.80558 17 0 13.1944 0 8.5C0 3.80558 3.80558 0 8.5 0C13.1944 0 17 3.80558 17 8.5ZM14.875 8.5C14.875 9.55465 14.6189 10.5495 14.1655 11.4257L12.5456 9.80584C12.6783 9.39441 12.75 8.95558 12.75 8.5C12.75 8.15082 12.7079 7.81148 12.6285 7.48678L14.2889 5.82632C14.6651 6.63944 14.875 7.54521 14.875 8.5ZM9.38673 12.6574L11.0666 14.3373C10.2814 14.683 9.4131 14.875 8.5 14.875C7.54521 14.875 6.63944 14.6651 5.82632 14.2889L7.48678 12.6285C7.81148 12.7079 8.15082 12.75 8.5 12.75C8.80409 12.75 9.10073 12.7181 9.38673 12.6574ZM4.41795 9.6869C4.30861 9.31021 4.25 8.91195 4.25 8.5C4.25 8.14733 4.29296 7.8047 4.37392 7.47705L4.29017 7.5608L2.66275 5.93338C2.31697 6.71864 2.125 7.5869 2.125 8.5C2.125 9.51347 2.36149 10.4717 2.78231 11.3225L4.41795 9.6869ZM5.57429 2.83451C6.45051 2.3811 7.44535 2.125 8.5 2.125C9.51347 2.125 10.4717 2.36149 11.3225 2.78231L9.6869 4.41795C9.31021 4.30861 8.91195 4.25 8.5 4.25C8.04442 4.25 7.60559 4.32168 7.19416 4.45438L5.57429 2.83451ZM10.625 8.5C10.625 9.6736 9.6736 10.625 8.5 10.625C7.3264 10.625 6.375 9.6736 6.375 8.5C6.375 7.3264 7.3264 6.375 8.5 6.375C9.6736 6.375 10.625 7.3264 10.625 8.5Z" fill="currentColor"/>
</svg>
