<svg width="11" height="11" viewBox="0 0 11 11" fill="none" xmlns="http://www.w3.org/2000/svg">
<path fill-rule="evenodd" clip-rule="evenodd" d="M0.599998 2.35C0.599998 1.1902 1.5402 0.25 2.7 0.25H9.7C9.96514 0.25 10.2075 0.399802 10.3261 0.63695C10.4447 0.874099 10.4191 1.15789 10.26 1.37L8.475 3.75L10.26 6.13C10.4191 6.34211 10.4447 6.6259 10.3261 6.86305C10.2075 7.1002 9.96514 7.25 9.7 7.25H2.7C2.3134 7.25 2 7.5634 2 7.95V10.05C2 10.4366 1.6866 10.75 1.3 10.75C0.913399 10.75 0.599998 10.4366 0.599998 10.05V2.35Z" fill="currentColor"/>
</svg>
