<svg width="17" height="15" viewBox="0 0 17 15" fill="none" xmlns="http://www.w3.org/2000/svg">
<path d="M5.3125 0C4.7257 0 4.25 0.475698 4.25 1.0625C4.25 1.6493 4.7257 2.125 5.3125 2.125H11.6875C12.2743 2.125 12.75 1.6493 12.75 1.0625C12.75 0.475698 12.2743 0 11.6875 0H5.3125Z" fill="currentColor"/>
<path d="M2.125 4.25C2.125 3.6632 2.6007 3.1875 3.1875 3.1875H13.8125C14.3993 3.1875 14.875 3.6632 14.875 4.25C14.875 4.8368 14.3993 5.3125 13.8125 5.3125H3.1875C2.6007 5.3125 2.125 4.8368 2.125 4.25Z" fill="#363636"/>
<path d="M0 8.5C0 7.3264 0.951395 6.375 2.125 6.375H14.875C16.0486 6.375 17 7.3264 17 8.5V12.75C17 13.9236 16.0486 14.875 14.875 14.875H2.125C0.951395 14.875 0 13.9236 0 12.75V8.5Z" fill="currentColor"/>
</svg>
