<svg width="16" height="16" viewBox="0 0 16 16" fill="none" xmlns="http://www.w3.org/2000/svg">
<path d="M-5.23838e-08 1C-2.3453e-08 0.447715 0.447715 2.3453e-08 1 5.23838e-08L3.15287 1.65159e-07C3.64171 1.90767e-07 4.0589 0.353413 4.13927 0.835601L4.87858 5.27148C4.95075 5.70451 4.73206 6.13397 4.3394 6.3303L2.79126 7.10437C3.90756 9.87832 6.12168 12.0924 8.89563 13.2087L9.6697 11.6606C9.86603 11.2679 10.2955 11.0492 10.7285 11.1214L15.1644 11.8607C15.6466 11.9411 16 12.3583 16 12.8471L16 15C16 15.5523 15.5523 16 15 16L13 16C5.8203 16 -5.33252e-07 10.1797 -1.57151e-07 3L-5.23838e-08 1Z" fill="currentColor"/>
</svg>
