<svg width="13" height="13" viewBox="0 0 13 13" fill="none" xmlns="http://www.w3.org/2000/svg">
<path d="M6.5 4.05556V12M6.5 4.05556C6.5 4.05556 6.5 3.1433 6.5 2.83333C6.5 2.15832 7.04721 1.61111 7.72222 1.61111C8.39724 1.61111 8.94444 2.15832 8.94444 2.83333C8.94444 3.50835 8.39724 4.05556 7.72222 4.05556C7.35718 4.05556 6.5 4.05556 6.5 4.05556ZM6.5 4.05556C6.5 4.05556 6.5 2.87178 6.5 2.52778C6.5 1.68401 5.81599 1 4.97222 1C4.12845 1 3.44444 1.68401 3.44444 2.52778C3.44444 3.37155 4.12845 4.05556 4.97222 4.05556C5.47199 4.05556 6.5 4.05556 6.5 4.05556ZM2.22222 6.5H10.7778M2.22222 6.5C1.54721 6.5 1 5.95279 1 5.27778C1 4.60276 1.54721 4.05556 2.22222 4.05556H10.7778C11.4528 4.05556 12 4.60276 12 5.27778C12 5.95279 11.4528 6.5 10.7778 6.5M2.22222 6.5L2.22222 10.7778C2.22222 11.4528 2.76943 12 3.44444 12H9.55556C10.2306 12 10.7778 11.4528 10.7778 10.7778V6.5" stroke="currentColor" stroke-linecap="round" stroke-linejoin="round"/>
</svg>
