<svg width="24" height="24" viewBox="0 0 24 24" fill="none" xmlns="http://www.w3.org/2000/svg">
<path fill-rule="evenodd" clip-rule="evenodd" d="M12 4.2321C11.3644 3.08711 10.2724 2 8.53125 2C6.71907 2 5.25 3.45507 5.25 5.25C5.25 7.04493 6.71907 8.5 8.53125 8.5H4C2.89543 8.5 2 9.39543 2 10.5C2 11.6046 2.89543 12.5 4 12.5H11.25V8.5H12.75V12.5H20C21.1046 12.5 22 11.6046 22 10.5C22 9.39543 21.1046 8.5 20 8.5H15.4688C17.2809 8.5 18.75 7.04493 18.75 5.25C18.75 3.45507 17.2809 2 15.4688 2C13.7276 2 12.6356 3.08711 12 4.2321ZM6.75 5.25C6.75 6.203 7.53393 7 8.53125 7H11.25V6.64286C11.2499 6.63945 11.2474 6.57223 11.2236 6.43769C11.2007 6.30812 11.163 6.14405 11.107 5.95787C10.9938 5.5815 10.8182 5.15685 10.5753 4.76776C10.0934 3.99621 9.45394 3.5 8.53125 3.5C7.53393 3.5 6.75 4.297 6.75 5.25ZM12.75 6.64272V7H15.4688C16.4661 7 17.25 6.203 17.25 5.25C17.25 4.297 16.4661 3.5 15.4688 3.5C14.5461 3.5 13.9066 3.99621 13.4247 4.76776C13.1818 5.15685 13.0062 5.5815 12.893 5.95787C12.837 6.14405 12.7993 6.30812 12.7764 6.43769C12.7526 6.57223 12.7501 6.63931 12.75 6.64272Z" fill="currentColor"/>
<path d="M6 22C4.89543 22 4 21.1046 4 20V14H11.25V22H6Z" fill="currentColor"/>
<path d="M20 20C20 21.1046 19.1046 22 18 22H12.75V14H20V20Z" fill="currentColor"/>
</svg>
