<svg width="20" height="13" viewBox="0 0 20 13" fill="none" xmlns="http://www.w3.org/2000/svg">
<path d="M14.1829 10.3155C14.1829 11.2258 14.6686 12.067 15.457 12.5223C16.2455 12.9776 17.2167 12.9776 18.0051 12.5223C18.7935 12.067 19.2793 11.2258 19.2793 10.3155V9.95166H14.1829L14.1829 10.3155Z" fill="currentColor"/>
<path d="M2.91211 10.3155C2.91211 11.2258 3.39786 12.067 4.18629 12.5223C4.97471 12.9776 5.94592 12.9776 6.73434 12.5223C7.52276 12.067 8.00826 11.2258 8.00826 10.3155V9.95166H2.91217L2.91211 10.3155Z" fill="currentColor"/>
<path d="M16.9201 7.2061C16.6675 7.14338 16.4677 6.9504 16.3961 6.70004L15.0892 2.13184H12.7267V7.95596C12.7267 8.14919 12.65 8.33429 12.5134 8.4709C12.3771 8.60751 12.1917 8.68419 11.9987 8.68419H8.00814C7.60619 8.68419 7.28018 8.35816 7.28018 7.95596V6.50003H1.45605V10.1402C1.45605 10.3332 1.53274 10.5185 1.66909 10.6549C1.8057 10.7915 1.9908 10.8682 2.18403 10.8682H19.2792V10.2311C19.2802 9.53588 19.0486 8.86044 18.621 8.31201C18.1937 7.7638 17.5948 7.37445 16.9201 7.2061Z" fill="currentColor"/>
<path d="M12.7269 3.04865H17.0951V0.136719H12.7269C12.2067 0.136719 11.726 0.414249 11.466 0.864686C11.206 1.31514 11.206 1.87021 11.466 2.32062C11.726 2.77107 12.2067 3.04865 12.7269 3.04865Z" fill="currentColor"/>
<path d="M0.727966 5.23291H8.00828C8.41049 5.23291 8.73625 5.63512 8.73625 5.96088V6.68884C8.73625 7.09105 8.41022 7.41681 8.00828 7.41681H0.727966C0.325761 7.41681 0 7.0146 0 6.68884V5.96088C0 5.55867 0.326027 5.23291 0.727966 5.23291Z" fill="currentColor"/>
</svg>
