<svg width="15" height="20" viewBox="0 0 15 20" fill="none" xmlns="http://www.w3.org/2000/svg">
<path d="M6.4375 0.833008C5.78166 0.833008 5.25 1.36467 5.25 2.02051C5.25 2.67635 5.78166 3.20801 6.4375 3.20801H8.8125C9.46834 3.20801 10 2.67635 10 2.02051C10 1.36467 9.46834 0.833008 8.8125 0.833008H6.4375Z" fill="currentColor"/>
<path fill-rule="evenodd" clip-rule="evenodd" d="M0.5 4.39551C0.5 3.08383 1.56332 2.02051 2.875 2.02051C2.875 3.98802 4.46999 5.58301 6.4375 5.58301H8.8125C10.78 5.58301 12.375 3.98802 12.375 2.02051C13.6867 2.02051 14.75 3.08383 14.75 4.39551V17.458C14.75 18.7697 13.6867 19.833 12.375 19.833H2.875C1.56332 19.833 0.5 18.7697 0.5 17.458V4.39551ZM4.0625 9.14551C3.40666 9.14551 2.875 9.67717 2.875 10.333C2.875 10.9888 3.40666 11.5205 4.0625 11.5205H4.07438C4.73021 11.5205 5.26188 10.9888 5.26188 10.333C5.26188 9.67717 4.73021 9.14551 4.07438 9.14551H4.0625ZM7.625 9.14551C6.96916 9.14551 6.4375 9.67717 6.4375 10.333C6.4375 10.9888 6.96916 11.5205 7.625 11.5205H11.1875C11.8433 11.5205 12.375 10.9888 12.375 10.333C12.375 9.67717 11.8433 9.14551 11.1875 9.14551H7.625ZM4.0625 13.8955C3.40666 13.8955 2.875 14.4272 2.875 15.083C2.875 15.7388 3.40666 16.2705 4.0625 16.2705H4.07438C4.73021 16.2705 5.26188 15.7388 5.26188 15.083C5.26188 14.4272 4.73021 13.8955 4.07438 13.8955H4.0625ZM7.625 13.8955C6.96916 13.8955 6.4375 14.4272 6.4375 15.083C6.4375 15.7388 6.96916 16.2705 7.625 16.2705H11.1875C11.8433 16.2705 12.375 15.7388 12.375 15.083C12.375 14.4272 11.8433 13.8955 11.1875 13.8955H7.625Z" fill="currentColor"/>
</svg>
