<svg width="17" height="18" viewBox="0 0 17 18" fill="none" xmlns="http://www.w3.org/2000/svg">
<path fill-rule="evenodd" clip-rule="evenodd" d="M10.0823 2.07713C9.67959 0.4183 7.32042 0.418299 6.9177 2.07713C6.65756 3.14872 5.42985 3.65725 4.48818 3.08348C3.03044 2.19526 1.36226 3.86345 2.25047 5.32118C2.82424 6.26286 2.31571 7.49056 1.24412 7.75071C-0.414709 8.15342 -0.414708 10.5126 1.24413 10.9153C2.31571 11.1755 2.82424 12.4032 2.25047 13.3448C1.36226 14.8026 3.03044 16.4708 4.48818 15.5825C5.42985 15.0088 6.65756 15.5173 6.9177 16.5889C7.32042 18.2477 9.67959 18.2477 10.0823 16.5889C10.3424 15.5173 11.5702 15.0088 12.5118 15.5825C13.9696 16.4708 15.6377 14.8026 14.7495 13.3448C14.1758 12.4032 14.6843 11.1755 15.7559 10.9153C17.4147 10.5126 17.4147 8.15342 15.7559 7.75071C14.6843 7.49056 14.1758 6.26286 14.7495 5.32118C15.6377 3.86345 13.9696 2.19527 12.5118 3.08348C11.5702 3.65725 10.3424 3.14872 10.0823 2.07713ZM8.5 12.5205C10.2604 12.5205 11.6875 11.0934 11.6875 9.33301C11.6875 7.5726 10.2604 6.14551 8.5 6.14551C6.73959 6.14551 5.3125 7.5726 5.3125 9.33301C5.3125 11.0934 6.73959 12.5205 8.5 12.5205Z" fill="currentColor"/>
</svg>
