<svg width="14" height="14" viewBox="0 0 14 14" fill="none" xmlns="http://www.w3.org/2000/svg">
<path fill-rule="evenodd" clip-rule="evenodd" d="M7 14C10.866 14 14 10.866 14 7C14 3.13401 10.866 0 7 0C3.13401 0 0 3.13401 0 7C0 10.866 3.13401 14 7 14ZM7 3.5C7 2.94772 6.55228 2.5 6 2.5C5.44772 2.5 5 2.94772 5 3.5V7C5 7.26522 5.10536 7.51957 5.29289 7.70711L7.76777 10.182C8.15829 10.5725 8.79146 10.5725 9.18198 10.182C9.57251 9.79146 9.57251 9.15829 9.18198 8.76777L7 6.58579V3.5Z" fill="currentColor"/>
</svg>
