<svg width="17" height="18" viewBox="0 0 17 18" fill="none" xmlns="http://www.w3.org/2000/svg">
<path d="M9.2513 1.14421C8.83637 0.729275 8.16363 0.729275 7.7487 1.14421L0.311199 8.58171C-0.103733 8.99664 -0.103733 9.66938 0.311199 10.0843C0.726131 10.4992 1.39887 10.4992 1.8138 10.0843L2.125 9.77311V16.7705C2.125 17.3573 2.6007 17.833 3.1875 17.833H5.3125C5.8993 17.833 6.375 17.3573 6.375 16.7705V14.6455C6.375 14.0587 6.8507 13.583 7.4375 13.583H9.5625C10.1493 13.583 10.625 14.0587 10.625 14.6455V16.7705C10.625 17.3573 11.1007 17.833 11.6875 17.833H13.8125C14.3993 17.833 14.875 17.3573 14.875 16.7705V9.77311L15.1862 10.0843C15.6011 10.4992 16.2739 10.4992 16.6888 10.0843C17.1037 9.66938 17.1037 8.99664 16.6888 8.58171L9.2513 1.14421Z" fill="currentColor"/>
</svg>
