<svg width="12" height="12" viewBox="0 0 12 12" fill="none" xmlns="http://www.w3.org/2000/svg">
<path d="M5.23248 0.541801C5.47406 -0.180601 6.52594 -0.1806 6.76752 0.541802L7.63068 3.12291C7.73872 3.44598 8.04857 3.66471 8.3982 3.66471H11.1914C11.9732 3.66471 12.2983 4.63669 11.6658 5.08316L9.40601 6.67838C9.12316 6.87804 9.00481 7.23196 9.11284 7.55503L9.976 10.1361C10.2176 10.8585 9.3666 11.4593 8.73413 11.0128L6.47435 9.41757C6.1915 9.21791 5.8085 9.21791 5.52565 9.41757L3.26587 11.0128C2.6334 11.4593 1.78242 10.8585 2.024 10.1361L2.88716 7.55503C2.9952 7.23196 2.87684 6.87804 2.59399 6.67838L0.334211 5.08316C-0.298259 4.63669 0.0267878 3.66471 0.808563 3.66471H3.60181C3.95143 3.66471 4.26128 3.44598 4.36932 3.12291L5.23248 0.541801Z" fill="currentColor"/>
</svg>
