<svg width="14" height="14" viewBox="0 0 14 14" fill="none" xmlns="http://www.w3.org/2000/svg">
<path fill-rule="evenodd" clip-rule="evenodd" d="M7 0C5.2174 1.59547 2.8737 2.5769 0.301386 2.6118C0.207973 3.16826 0.15935 3.73992 0.15935 4.32293C0.15935 8.7906 3.01467 12.5914 7 14C10.9853 12.5914 13.8406 8.7906 13.8406 4.32293C13.8406 3.73992 13.792 3.16827 13.6986 2.6118C11.1263 2.5769 8.7826 1.59547 7 0ZM7.85508 10.3085C7.85508 10.7807 7.47225 11.1635 7 11.1635C6.52775 11.1635 6.14492 10.7807 6.14492 10.3085C6.14492 9.83622 6.52775 9.45339 7 9.45339C7.47225 9.45339 7.85508 9.83622 7.85508 10.3085ZM7.85508 4.3229C7.85508 3.85065 7.47225 3.46782 7 3.46782C6.52775 3.46782 6.14492 3.85065 6.14492 4.3229V6.88814C6.14492 7.36039 6.52775 7.74322 7 7.74322C7.47225 7.74322 7.85508 7.36039 7.85508 6.88814V4.3229Z" fill="currentColor"/>
</svg>
