<svg width="19" height="22" viewBox="0 0 19 22" fill="none" xmlns="http://www.w3.org/2000/svg">
<path d="M9.5 0C5.00284 0 1.35718 3.69365 1.35718 8.25V13.1805L0.397536 14.1527C0.00939748 14.546 -0.106713 15.1374 0.103346 15.6512C0.313405 16.165 0.808266 16.5 1.35718 16.5H17.6428C18.1917 16.5 18.6866 16.165 18.8967 15.6512C19.1067 15.1374 18.9906 14.546 18.6025 14.1527L17.6428 13.1805V8.25C17.6428 3.69365 13.9972 0 9.5 0Z" fill="#DD5B63"/>
<path d="M9.49996 22C7.25138 22 5.42855 20.1532 5.42855 17.875H13.5714C13.5714 20.1532 11.7485 22 9.49996 22Z" fill="#F5CED0"/>
</svg>
