<svg width="24" height="24" viewBox="0 0 24 24" fill="none" xmlns="http://www.w3.org/2000/svg">
<path opacity="0.3" fill-rule="evenodd" clip-rule="evenodd" d="M2.56043 10.682C1.97465 11.2678 1.97465 12.2175 2.56043 12.8033L4.68175 14.9246C5.26754 15.5104 6.21729 15.5104 6.80307 14.9246L8.92439 12.8033C9.51018 12.2175 9.51018 11.2678 8.92439 10.682L6.80307 8.56068C6.21729 7.97489 5.26754 7.97489 4.68175 8.56068L2.56043 10.682ZM14.5604 10.682C13.9746 11.2678 13.9746 12.2175 14.5604 12.8033L16.6818 14.9246C17.2675 15.5104 18.2173 15.5104 18.8031 14.9246L20.9244 12.8033C21.5102 12.2175 21.5102 11.2678 20.9244 10.682L18.8031 8.56068C18.2173 7.97489 17.2675 7.97489 16.6818 8.56068L14.5604 10.682Z" fill="#DD5B63"/>
<path fill-rule="evenodd" clip-rule="evenodd" d="M8.56043 4.682C7.97465 5.26778 7.97465 6.21753 8.56043 6.80332L10.6818 8.92464C11.2675 9.51043 12.2173 9.51043 12.8031 8.92464L14.9244 6.80332C15.5102 6.21753 15.5102 5.26778 14.9244 4.682L12.8031 2.56068C12.2173 1.97489 11.2675 1.97489 10.6818 2.56068L8.56043 4.682ZM8.56043 16.682C7.97465 17.2678 7.97465 18.2175 8.56043 18.8033L10.6818 20.9246C11.2675 21.5104 12.2173 21.5104 12.8031 20.9246L14.9244 18.8033C15.5102 18.2175 15.5102 17.2678 14.9244 16.682L12.8031 14.5607C12.2173 13.9749 11.2675 13.9749 10.6818 14.5607L8.56043 16.682Z" fill="#DD5B63"/>
</svg>
