<svg width="10" height="10" viewBox="0 0 10 10" fill="none" xmlns="http://www.w3.org/2000/svg">
<path fill-rule="evenodd" clip-rule="evenodd" d="M3.82148 9.34743C3.54973 9.50432 3.20225 9.41121 3.04536 9.13947L0.233119 4.26852C0.0762274 3.99678 0.169334 3.6493 0.44108 3.4924L5.31202 0.680162C5.44792 0.601703 5.60275 0.585764 5.74322 0.623421L8.48715 1.35865C9.39643 1.60229 9.93604 2.53692 9.69239 3.4462L8.9571 6.19035C8.91944 6.33074 8.82825 6.45677 8.69242 6.53519L3.82148 9.34743ZM7.4972 2.858C7.41598 3.16109 7.59585 3.47264 7.89895 3.55385C8.20204 3.63506 8.51358 3.45519 8.5948 3.1521C8.67601 2.84901 8.49614 2.53747 8.19305 2.45625C7.88995 2.37504 7.57841 2.55491 7.4972 2.858Z" fill="#DD5B63"/>
</svg>
