<svg width="15" height="11" viewBox="0 0 15 11" fill="none" xmlns="http://www.w3.org/2000/svg">
<path d="M6.66666 2.35714C6.66666 3.65896 5.54737 4.71429 4.16666 4.71429C2.78595 4.71429 1.66666 3.65896 1.66666 2.35714C1.66666 1.05533 2.78595 0 4.16666 0C5.54737 0 6.66666 1.05533 6.66666 2.35714Z" fill="currentColor"/>
<path d="M13.3333 2.35714C13.3333 3.65896 12.214 4.71429 10.8333 4.71429C9.45261 4.71429 8.33332 3.65896 8.33332 2.35714C8.33332 1.05533 9.45261 0 10.8333 0C12.214 0 13.3333 1.05533 13.3333 2.35714Z" fill="currentColor"/>
<path d="M9.94093 11C9.97986 10.7434 10 10.4811 10 10.2143C10 8.9295 9.53278 7.7476 8.74979 6.81141C9.3627 6.47707 10.0743 6.28571 10.8333 6.28571C13.1345 6.28571 15 8.0446 15 10.2143V11H9.94093Z" fill="currentColor"/>
<path d="M4.16666 6.28571C6.46785 6.28571 8.33332 8.0446 8.33332 10.2143V11H0V10.2143C0 8.0446 1.86548 6.28571 4.16666 6.28571Z" fill="currentColor"/>
</svg>
