<svg width="16" height="15" viewBox="0 0 16 15" fill="none" xmlns="http://www.w3.org/2000/svg">
<path d="M15.4888 7.9594C15.4888 7.19828 14.8424 6.58127 14.045 6.58127C13.2477 6.58127 12.6013 7.19828 12.6013 7.9594V13.4719C12.6013 14.233 13.2477 14.85 14.045 14.85C14.8424 14.85 15.4888 14.233 15.4888 13.4719V7.9594Z" fill="currentColor"/>
<path d="M11.6388 7.80627V12.7956C11.6388 13.4916 11.2268 14.1279 10.5747 14.4391L10.5267 14.462C9.99209 14.7172 9.4026 14.85 8.80491 14.85H3.59189C2.67428 14.85 1.88423 14.2318 1.70427 13.3729L0.549274 7.86039C0.311039 6.72336 1.22213 5.66252 2.43689 5.66252H5.86377V1.98752C5.86377 0.972701 6.72562 0.150024 7.78877 0.150024C8.32034 0.150024 8.75127 0.561363 8.75127 1.06877V1.68127C8.75127 2.47643 9.02145 3.25015 9.52127 3.88627L10.8688 5.60127C11.3686 6.2374 11.6388 7.01111 11.6388 7.80627Z" fill="currentColor"/>
</svg>
