<svg width="17" height="18" viewBox="0 0 17 18" fill="none" xmlns="http://www.w3.org/2000/svg">
<path fill-rule="evenodd" clip-rule="evenodd" d="M8.5 17.3751C13.1944 17.3751 17 13.6791 17 9.11981C17 4.56056 13.1944 0.864557 8.5 0.864557C3.80558 0.864557 0 4.56056 0 9.11981C0 13.6791 3.80558 17.3751 8.5 17.3751ZM12.4388 7.78567C12.8537 7.38268 12.8537 6.72931 12.4388 6.32633C12.0239 5.92334 11.3435 6.35818 10.9286 6.76117L7.28571 10.2991L6.07143 9.11981C5.6565 8.71683 4.97613 7.98716 4.5612 8.39014C4.14627 8.79313 4.14627 9.44649 4.5612 9.84948L6.6862 11.9133C7.10113 12.3163 7.77387 12.3163 8.1888 11.9133L12.4388 7.78567Z" fill="currentColor"/>
</svg>
