<svg width="17" height="17" viewBox="0 0 17 17" fill="none" xmlns="http://www.w3.org/2000/svg">
<path fill-rule="evenodd" clip-rule="evenodd" d="M17 8.5C17 13.1944 13.1944 17 8.5 17C3.80558 17 0 13.1944 0 8.5C0 3.80558 3.80558 0 8.5 0C13.1944 0 17 3.80558 17 8.5ZM9.5625 4.25C9.5625 4.8368 9.0868 5.3125 8.5 5.3125C7.9132 5.3125 7.4375 4.8368 7.4375 4.25C7.4375 3.6632 7.9132 3.1875 8.5 3.1875C9.0868 3.1875 9.5625 3.6632 9.5625 4.25ZM7.4375 7.4375C6.8507 7.4375 6.375 7.9132 6.375 8.5C6.375 9.0868 6.8507 9.5625 7.4375 9.5625V12.75C7.4375 13.3368 7.9132 13.8125 8.5 13.8125H9.5625C10.1493 13.8125 10.625 13.3368 10.625 12.75C10.625 12.1632 10.1493 11.6875 9.5625 11.6875V8.5C9.5625 7.9132 9.0868 7.4375 8.5 7.4375H7.4375Z" fill="currentColor"/>
</svg>
