<svg width="14" height="14" viewBox="0 0 14 14" fill="none" xmlns="http://www.w3.org/2000/svg">
<path fill-rule="evenodd" clip-rule="evenodd" d="M0.875 13.125C0.875 12.6418 1.26675 12.25 1.75 12.25H12.25C12.7333 12.25 13.125 12.6418 13.125 13.125C13.125 13.6082 12.7333 14 12.25 14H1.75C1.26675 14 0.875 13.6082 0.875 13.125ZM3.75628 4.11872C3.41457 3.77701 3.41457 3.22299 3.75628 2.88128L6.38128 0.256282C6.54538 0.0921875 6.76794 1.01439e-08 7 0C7.23206 -1.01439e-08 7.45462 0.0921875 7.61872 0.256282L10.2437 2.88128C10.5854 3.22299 10.5854 3.77701 10.2437 4.11872C9.90201 4.46043 9.34799 4.46043 9.00628 4.11872L7.875 2.98744L7.875 9.625C7.875 10.1082 7.48325 10.5 7 10.5C6.51675 10.5 6.125 10.1082 6.125 9.625L6.125 2.98744L4.99372 4.11872C4.65201 4.46043 4.09799 4.46043 3.75628 4.11872Z" fill="#5E97A9"/>
</svg>
