<svg width="17" height="13" viewBox="0 0 17 13" fill="none" xmlns="http://www.w3.org/2000/svg">
<path d="M7.55555 2.78571C7.55555 4.32422 6.28702 5.57143 4.72222 5.57143C3.15741 5.57143 1.88889 4.32422 1.88889 2.78571C1.88889 1.24721 3.15741 0 4.72222 0C6.28702 0 7.55555 1.24721 7.55555 2.78571Z" fill="currentColor"/>
<path d="M15.1111 2.78571C15.1111 4.32422 13.8426 5.57143 12.2778 5.57143C10.713 5.57143 9.44443 4.32422 9.44443 2.78571C9.44443 1.24721 10.713 0 12.2778 0C13.8426 0 15.1111 1.24721 15.1111 2.78571Z" fill="currentColor"/>
<path d="M11.2664 13C11.3105 12.6967 11.3333 12.3867 11.3333 12.0714C11.3333 10.553 10.8038 9.15626 9.91642 8.04985C10.6111 7.65472 11.4176 7.42857 12.2778 7.42857C14.8858 7.42857 17 9.50725 17 12.0714V13H11.2664Z" fill="currentColor"/>
<path d="M4.72222 7.42857C7.33022 7.42857 9.44443 9.50725 9.44443 12.0714V13H0V12.0714C0 9.50725 2.11421 7.42857 4.72222 7.42857Z" fill="currentColor"/>
</svg>
