<svg width="14" height="13" viewBox="0 0 14 13" fill="none" xmlns="http://www.w3.org/2000/svg">
<path fill-rule="evenodd" clip-rule="evenodd" d="M5.39091 0.941071C6.09672 -0.31369 7.90329 -0.313691 8.60909 0.94107L13.7602 10.0986C14.4525 11.3293 13.5631 12.8499 12.1511 12.8499H1.84887C0.436861 12.8499 -0.452471 11.3293 0.239783 10.0986L5.39091 0.941071ZM7.92301 10.0808C7.92301 10.5906 7.50973 11.0038 6.99992 11.0038C6.49011 11.0038 6.07683 10.5906 6.07683 10.0808C6.07683 9.57095 6.49011 9.15767 6.99992 9.15767C7.50973 9.15767 7.92301 9.57095 7.92301 10.0808ZM6.99992 2.69603C6.49011 2.69603 6.07683 3.10931 6.07683 3.61912V6.38839C6.07683 6.8982 6.49011 7.31148 6.99992 7.31148C7.50973 7.31148 7.92301 6.8982 7.92301 6.38839V3.61912C7.92301 3.10931 7.50973 2.69603 6.99992 2.69603Z" fill="currentColor"/>
</svg>
