<svg width="18" height="17" viewBox="0 0 18 17" fill="none" xmlns="http://www.w3.org/2000/svg">
<path d="M1 2.76471C1 1.79009 1.79594 1 2.77778 1H15.2222C16.2041 1 17 1.79009 17 2.76471V9.82353C17 10.7981 16.2041 11.5882 15.2222 11.5882H10.7778L6.33333 16V11.5882H2.77778C1.79594 11.5882 1 10.7981 1 9.82353V2.76471Z" fill="currentColor"/>
<path d="M5.44444 6.29412H5.45333M9 6.29412H9.00889M12.5556 6.29412H12.5644M6.33333 11.5882H2.77778C1.79594 11.5882 1 10.7981 1 9.82353V2.76471C1 1.79009 1.79594 1 2.77778 1H15.2222C16.2041 1 17 1.79009 17 2.76471V9.82353C17 10.7981 16.2041 11.5882 15.2222 11.5882H10.7778L6.33333 16V11.5882Z" stroke="currentColor" stroke-linecap="round" stroke-linejoin="round"/>
<circle cx="5.44995" cy="6.30005" r="0.5" fill="white"/>
<circle cx="9" cy="6.30005" r="0.5" fill="white"/>
<circle cx="12.6001" cy="6.30005" r="0.5" fill="white"/>
</svg>
