<svg width="17" height="18" viewBox="0 0 17 18" fill="none" xmlns="http://www.w3.org/2000/svg">
<rect y="0.833252" width="7.4375" height="7.4375" rx="1.5" fill="currentColor"/>
<path fill-rule="evenodd" clip-rule="evenodd" d="M9.5625 2.33325C9.5625 1.50482 10.2341 0.833252 11.0625 0.833252H15.5C16.3284 0.833252 17 1.50482 17 2.33325V6.77075C17 7.59918 16.3284 8.27075 15.5 8.27075H11.0625C10.2341 8.27075 9.5625 7.59918 9.5625 6.77075V2.33325ZM0 11.8958C0 11.0673 0.671573 10.3958 1.5 10.3958H5.9375C6.76593 10.3958 7.4375 11.0673 7.4375 11.8958V16.3333C7.4375 17.1617 6.76593 17.8333 5.9375 17.8333H1.5C0.671573 17.8333 0 17.1617 0 16.3333V11.8958ZM11.0625 10.3958C10.2341 10.3958 9.5625 11.0673 9.5625 11.8958V16.3333C9.5625 17.1617 10.2341 17.8333 11.0625 17.8333H15.5C16.3284 17.8333 17 17.1617 17 16.3333V11.8958C17 11.0673 16.3284 10.3958 15.5 10.3958H11.0625Z" fill="currentColor"/>
</svg>
