<svg width="18" height="18" viewBox="0 0 18 18" fill="none" xmlns="http://www.w3.org/2000/svg">
<path fill-rule="evenodd" clip-rule="evenodd" d="M5.79096 0.752197C5.23868 0.752197 4.79096 1.19991 4.79096 1.7522V17C4.79096 17.5522 5.23868 18 5.79096 18H6.66559C7.21787 18 7.66559 17.5522 7.66559 17V1.7522C7.66559 1.19991 7.21787 0.752197 6.66559 0.752197H5.79096ZM1 0.752216C0.447715 0.752216 0 1.19993 0 1.75222V17C0 17.5523 0.447716 18 1 18H1.87463C2.42691 18 2.87463 17.5523 2.87463 17V1.75222C2.87463 1.19993 2.42691 0.752216 1.87463 0.752216H1Z" fill="white"/>
<rect x="9.08118" y="1.6377" width="2.87463" height="17.2478" rx="1" transform="rotate(-19 9.08118 1.6377)" fill="white"/>
</svg>
