<svg width="16" height="18" viewBox="0 0 16 18" fill="none" xmlns="http://www.w3.org/2000/svg">
<path d="M9.14286 16.875C9.14286 17.2649 9.34795 17.627 9.68488 17.832C10.0218 18.037 10.4425 18.0556 10.7968 17.8812L15.3682 15.6312C15.7554 15.4407 16 15.0511 16 14.625V8.14058C16 7.75068 15.7949 7.38858 15.458 7.18359C15.121 6.97861 14.7003 6.95998 14.346 7.13435L9.77461 9.38435C9.38743 9.57491 9.14286 9.96446 9.14286 10.3906V16.875Z" fill="currentColor"/>
<path d="M13.9556 4.81094C14.3428 4.62038 14.5874 4.23083 14.5874 3.80471C14.5874 3.37859 14.3428 2.98905 13.9556 2.79848L8.5111 0.118769C8.18936 -0.0395898 7.81064 -0.0395898 7.4889 0.118769L2.0444 2.79848C1.65722 2.98905 1.41265 3.37859 1.41265 3.80471C1.41265 4.23083 1.65722 4.62038 2.0444 4.81094L7.4889 7.49065C7.81064 7.64901 8.18936 7.64901 8.5111 7.49065L13.9556 4.81094Z" fill="currentColor"/>
<path d="M1.65396 7.13435C1.29969 6.95998 0.878955 6.97861 0.542022 7.18359C0.205088 7.38858 0 7.75068 0 8.14058V14.625C0 15.0511 0.244574 15.4407 0.631756 15.6312L5.20318 17.8812C5.55746 18.0556 5.97819 18.037 6.31512 17.832C6.65205 17.627 6.85714 17.2649 6.85714 16.875V10.3906C6.85714 9.96446 6.61257 9.57491 6.22539 9.38435L1.65396 7.13435Z" fill="currentColor"/>
</svg>
