<svg width="17" height="18" viewBox="0 0 17 18" fill="none" xmlns="http://www.w3.org/2000/svg">
<path d="M9.14246 0.907636C8.73241 0.497585 8.06759 0.497585 7.65754 0.907636L0.307538 8.25764C-0.102513 8.66769 -0.102513 9.33251 0.307538 9.74256C0.717588 10.1526 1.38241 10.1526 1.79246 9.74256L2.1 9.43502V16.3501C2.1 16.93 2.5701 17.4001 3.15 17.4001H5.25C5.8299 17.4001 6.3 16.93 6.3 16.3501V14.2501C6.3 13.6702 6.7701 13.2001 7.35 13.2001H9.45C10.0299 13.2001 10.5 13.6702 10.5 14.2501V16.3501C10.5 16.93 10.9701 17.4001 11.55 17.4001H13.65C14.2299 17.4001 14.7 16.93 14.7 16.3501V9.43502L15.0075 9.74256C15.4176 10.1526 16.0824 10.1526 16.4925 9.74256C16.9025 9.33251 16.9025 8.66769 16.4925 8.25764L9.14246 0.907636Z" fill="white"/>
</svg>
