<svg width="18" height="18" viewBox="0 0 18 18" fill="none" xmlns="http://www.w3.org/2000/svg">
<path fill-rule="evenodd" clip-rule="evenodd" d="M0.86193 6.11129C0.323694 6.17787 -0.058859 6.66976 0.00747451 7.20997C0.509583 11.299 3.76181 14.4759 7.78969 14.9247V15.8624H6.8141C5.72551 15.8624 4.84303 16.7449 4.84303 17.8335H8.74644C8.75481 17.8337 8.76321 17.8338 8.77162 17.8338C8.78004 17.8338 8.78844 17.8337 8.79681 17.8335H12.6985C12.6985 16.7449 11.816 15.8624 10.7274 15.8624H9.75356V14.9246C13.8254 14.4711 17.0999 11.2303 17.5499 7.08578C17.6087 6.54469 17.2193 6.05826 16.6801 5.99929C16.141 5.94033 15.6564 6.33117 15.5976 6.87226C15.2203 10.3478 12.2837 13.008 8.77152 13.008C5.29514 13.008 2.37798 10.4005 1.9566 6.96888C1.89027 6.42867 1.40017 6.04472 0.86193 6.11129Z" fill="white"/>
<path fill-rule="evenodd" clip-rule="evenodd" d="M14.6629 6.00716C14.6629 9.27291 12.0251 11.9203 8.77126 11.9203C5.51741 11.9203 2.87964 9.27291 2.87964 6.00716C2.87964 2.74141 5.51741 0.0939941 8.77126 0.0939941C12.0251 0.0939941 14.6629 2.74141 14.6629 6.00716ZM4.95818 5.21076C5.3132 5.18585 5.62113 5.45451 5.64596 5.81083C5.7317 7.0415 6.27443 7.96386 7.30681 8.63342C7.60572 8.82728 7.69145 9.22764 7.4983 9.52766C7.30515 9.82767 6.90625 9.91372 6.60733 9.71986C5.23424 8.82933 4.47434 7.53789 4.36031 5.90107C4.33548 5.54474 4.60316 5.23568 4.95818 5.21076Z" fill="white"/>
</svg>
