<svg width="17" height="18" viewBox="0 0 17 18" fill="none" xmlns="http://www.w3.org/2000/svg">
<path fill-rule="evenodd" clip-rule="evenodd" d="M9.96368 1.82959C9.56571 0.190268 7.23429 0.190268 6.83632 1.82959C6.57923 2.88856 5.36597 3.39111 4.43537 2.82409C2.99479 1.94633 1.34623 3.59489 2.22399 5.03547C2.79102 5.96607 2.28847 7.17933 1.22949 7.43642C-0.40983 7.83439 -0.409829 10.1658 1.22949 10.5638C2.28847 10.8209 2.79102 12.0341 2.22399 12.9647C1.34623 14.4053 2.99479 16.0539 4.43537 15.1761C5.36597 14.6091 6.57923 15.1116 6.83632 16.1706C7.23429 17.8099 9.56571 17.8099 9.96368 16.1706C10.2208 15.1116 11.434 14.6091 12.3646 15.1761C13.8052 16.0539 15.4538 14.4053 14.576 12.9647C14.009 12.0341 14.5115 10.8209 15.5705 10.5638C17.2098 10.1658 17.2098 7.83439 15.5705 7.43642C14.5115 7.17933 14.009 5.96607 14.576 5.03547C15.4538 3.59489 13.8052 1.94633 12.3646 2.82409C11.434 3.39111 10.2208 2.88857 9.96368 1.82959ZM8.4 12.1501C10.1397 12.1501 11.55 10.7398 11.55 9.0001C11.55 7.2604 10.1397 5.8501 8.4 5.8501C6.6603 5.8501 5.25 7.2604 5.25 9.0001C5.25 10.7398 6.6603 12.1501 8.4 12.1501Z" fill="white"/>
</svg>
