<svg width="13" height="17" viewBox="0 0 13 17" fill="none" xmlns="http://www.w3.org/2000/svg">
<path fill-rule="evenodd" clip-rule="evenodd" d="M0 2.125C0 0.951396 0.951395 0 2.125 0H6.9974C7.56098 0 8.10149 0.223883 8.5 0.622398L12.1276 4.25C12.5261 4.64852 12.75 5.18902 12.75 5.7526V14.875C12.75 16.0486 11.7986 17 10.625 17H2.125C0.951394 17 0 16.0486 0 14.875V2.125ZM2.125 8.5C2.125 7.9132 2.6007 7.4375 3.1875 7.4375H9.5625C10.1493 7.4375 10.625 7.9132 10.625 8.5C10.625 9.0868 10.1493 9.5625 9.5625 9.5625H3.1875C2.6007 9.5625 2.125 9.0868 2.125 8.5ZM3.1875 11.6875C2.6007 11.6875 2.125 12.1632 2.125 12.75C2.125 13.3368 2.6007 13.8125 3.1875 13.8125H9.5625C10.1493 13.8125 10.625 13.3368 10.625 12.75C10.625 12.1632 10.1493 11.6875 9.5625 11.6875H3.1875Z" fill="currentColor"/>
</svg>
