<svg width="18" height="17" viewBox="0 0 18 17" fill="none" xmlns="http://www.w3.org/2000/svg">
<path d="M7.84872 0.824874C8.2111 -0.274958 9.7889 -0.274958 10.1513 0.824875L11.446 4.75452C11.6081 5.24638 12.0729 5.5794 12.5973 5.5794H16.7872C17.9598 5.5794 18.4474 7.05921 17.4987 7.73895L14.109 10.1676C13.6847 10.4716 13.5072 11.0104 13.6693 11.5023L14.964 15.4319C15.3264 16.5318 14.0499 17.4463 13.1012 16.7666L9.71153 14.3379C9.28725 14.034 8.71274 14.034 8.28847 14.3379L4.8988 16.7666C3.9501 17.4463 2.67362 16.5318 3.036 15.4319L4.33074 11.5023C4.49279 11.0104 4.31526 10.4716 3.89099 10.1676L0.501316 7.73895C-0.447388 7.05921 0.0401816 5.5794 1.21284 5.5794H5.40271C5.92714 5.5794 6.39193 5.24638 6.55398 4.75452L7.84872 0.824874Z" fill="white"/>
</svg>
