<svg width="17" height="18" viewBox="0 0 17 18" fill="none" xmlns="http://www.w3.org/2000/svg">
<path fill-rule="evenodd" clip-rule="evenodd" d="M17 9.33301C17 14.0274 13.1944 17.833 8.5 17.833C3.80558 17.833 0 14.0274 0 9.33301C0 4.63859 3.80558 0.833008 8.5 0.833008C13.1944 0.833008 17 4.63859 17 9.33301ZM10.625 6.14551C10.625 7.31911 9.6736 8.27051 8.5 8.27051C7.3264 8.27051 6.375 7.31911 6.375 6.14551C6.375 4.9719 7.3264 4.02051 8.5 4.02051C9.6736 4.02051 10.625 4.9719 10.625 6.14551ZM8.49993 10.3955C6.35629 10.3955 4.50919 11.6651 3.66959 13.4935C4.83866 14.8495 6.56907 15.708 8.49998 15.708C10.4309 15.708 12.1612 14.8496 13.3303 13.4935C12.4907 11.6652 10.6436 10.3955 8.49993 10.3955Z" fill="currentColor"/>
</svg>
